<svg xmlns="http://www.w3.org/2000/svg" viewBox="0 0 272 350">
<!-- Ratatoskr logo - GPL-3.0-or-later. Derived from CC0 artwork, see upstream/README.md.
     Generated by tools/logo (gradlew :tools:logo:run). -->
<!-- "Ratatoskr" set in Norse Bold by Joel Carrouche, converted to outlines.
     The font license permits use in logos/artwork; the font FILE itself must not
     be committed to this repository. Regenerate via the regen-wordmark flag of
     the :tools:logo Gradle module (see GenerateLogo.kt). -->
<g transform="translate(8,8)"><path d="M152.51,17.74 L146.47,11.10 L140.65,5.67 L134.64,1.08 L128.00,-2.99 L119.59,2.32 L111.79,8.87 L104.18,16.94 L95.45,27.86 L106.19,30.29 L112.40,22.71 L117.67,17.10 L122.55,12.69 L128.00,8.67 L135.23,14.20 L142.63,21.62 L149.58,30.00 L165.65,50.98 L175.66,61.98 L181.33,66.99 L187.36,71.45 L194.56,75.97 L202.83,80.53 L203.41,69.50 L191.01,61.79 L185.77,57.68 L180.90,53.10 L172.45,43.49 L152.51,17.74 Z M75.90,27.78 L67.01,26.58 L59.06,26.16 L51.50,26.50 L43.80,27.66 L40.77,37.13 L39.01,47.16 L38.36,58.23 L38.70,72.21 L48.49,67.17 L48.38,57.37 L48.80,49.68 L49.70,43.17 L51.29,36.58 L60.39,36.18 L70.83,37.10 L81.54,39.06 L107.33,44.80 L122.07,46.79 L129.64,46.98 L137.12,46.52 L145.55,45.36 L154.81,43.54 L148.16,34.71 L133.71,36.78 L127.05,36.99 L120.37,36.62 L107.73,34.69 L75.90,27.78 Z M23.67,84.72 L16.09,89.51 L9.73,94.30 L4.16,99.42 L-1.00,105.25 L2.77,114.46 L7.87,123.28 L14.49,132.17 L23.73,142.66 L27.99,132.51 L21.61,125.08 L16.99,118.91 L13.49,113.35 L10.48,107.28 L17.19,101.12 L25.78,95.12 L35.24,89.73 L58.69,77.55 L71.26,69.60 L77.18,64.89 L82.61,59.72 L88.32,53.42 L94.25,46.07 L83.48,43.57 L73.74,54.45 L68.78,58.89 L63.42,62.90 L52.49,69.55 L23.67,84.72 Z M20.26,161.91 L17.53,170.45 L15.73,178.21 L14.76,185.71 L14.56,193.49 L23.37,198.12 L32.94,201.60 L43.73,204.16 L57.55,206.25 L54.29,195.74 L44.62,194.15 L37.12,192.40 L30.86,190.38 L24.65,187.67 L25.83,178.64 L28.56,168.52 L32.34,158.31 L42.47,133.91 L47.00,119.74 L48.50,112.32 L49.34,104.87 L49.66,96.37 L49.48,86.93 L39.63,91.94 L39.16,106.54 L38.21,113.13 L36.68,119.64 L32.58,131.76 L20.26,161.91 Z M67.16,222.97 L70.66,231.53 L74.27,238.63 L78.35,245.00 L83.20,251.09 L92.92,248.97 L102.49,245.49 L112.40,240.51 L124.34,233.23 L115.07,227.27 L106.65,232.27 L99.77,235.75 L93.68,238.22 L87.19,240.14 L82.29,232.46 L77.87,222.96 L74.20,212.71 L66.28,187.50 L60.63,173.74 L57.02,167.09 L52.87,160.84 L47.66,154.12 L41.45,147.01 L37.13,157.18 L46.15,168.67 L49.66,174.32 L52.67,180.30 L57.33,192.21 L67.16,222.97 Z M142.44,239.86 L150.62,244.17 L157.95,247.28 L165.17,249.54 L172.80,251.09 L178.89,243.22 L183.98,234.40 L188.37,224.22 L192.83,210.96 L181.91,212.36 L178.67,221.60 L175.64,228.68 L172.56,234.49 L168.81,240.14 L160.13,237.41 L150.64,232.97 L141.24,227.47 L118.96,213.25 L105.79,206.34 L98.75,203.57 L91.56,201.45 L83.25,199.66 L73.92,198.20 L77.15,208.77 L91.44,211.77 L97.76,213.84 L103.91,216.48 L115.14,222.62 L142.44,239.86 Z M210.96,204.40 L220.00,202.45 L227.62,200.12 L234.60,197.21 L241.44,193.49 L241.04,183.55 L239.27,173.53 L236.10,162.90 L230.99,149.88 L223.52,157.97 L226.98,167.14 L229.21,174.51 L230.59,180.93 L231.35,187.67 L222.94,191.16 L212.81,193.86 L202.08,195.69 L175.88,199.12 L161.35,202.28 L154.17,204.69 L147.30,207.69 L139.78,211.66 L131.70,216.54 L140.96,222.56 L153.83,215.67 L160.02,213.19 L166.42,211.26 L178.96,208.75 L210.96,204.40 Z M240.67,133.20 L246.33,125.89 L250.67,119.22 L254.15,112.50 L257.00,105.25 L250.31,97.89 L242.50,91.35 L233.24,85.25 L220.96,78.56 L220.44,89.56 L228.98,94.36 L235.42,98.57 L240.61,102.61 L245.52,107.28 L241.32,115.36 L235.30,123.93 L228.26,132.23 L210.39,151.70 L201.29,163.47 L197.34,169.92 L194.00,176.64 L190.80,184.52 L187.74,193.45 L198.71,192.11 L204.14,178.55 L207.29,172.68 L210.95,167.09 L218.95,157.10 L240.67,133.20 Z M217.65,59.56 L217.29,50.33 L216.32,42.42 L214.67,35.04 L212.20,27.66 L202.34,26.32 L192.16,26.32 L181.14,27.61 L167.43,30.37 L174.10,39.13 L183.73,37.32 L191.38,36.40 L197.94,36.16 L204.71,36.59 L206.68,45.47 L207.59,55.91 L207.52,66.80 L206.35,93.20 L206.95,108.06 L208.07,115.54 L209.83,122.84 L212.43,130.93 L215.83,139.73 L223.37,131.66 L218.82,117.78 L217.46,111.26 L216.67,104.62 L216.37,91.83 L217.65,59.56 Z" fill="#4F6B35" fill-rule="evenodd" stroke="none"/><g transform="translate(57.6,56.5) scale(0.55)"><path fill="#C56A4F"
     d="M 102.14453,91.707031 C 75.88387,107.83383 58.388797,136.81742 58.388672,169.92969 c 0,26.24358 10.989932,49.8941 28.623047,66.60547 0.78917,0.0287 1.606685,0.0645 2.388672,0.0645 h 13.798829 c -21.700005,-14.2 -36.100001,-38.99883 -36.000001,-66.79883 0,-4.6 0.401562,-9.10039 1.101562,-13.40039 0.9,-5.3 2.19961,-10.40078 4.09961,-15.30078 4.6,-12.2 12.3,-22.99961 22,-31.59961 3.931025,-5.43652 6.883519,-11.153028 7.744139,-17.792969 z"/><path fill="#CF7B60"
     d="m 100.54883,74.9375 c -34.212592,17.872891 -57.538997,53.68416 -57.539064,94.99219 0,23.98286 7.863534,46.11295 21.154296,63.95508 3.994665,1.1882 8.055807,2.01583 12.144532,2.42382 -15.837028,-17.59471 -25.480469,-40.87153 -25.480469,-66.3789 1.42e-4,-37.40057 20.735424,-70.006176 51.324215,-86.935549 -0.0436,-0.3653 -0.0948,-0.729088 -0.15234,-1.09375 -0.28228,-2.301653 -0.7723,-4.633659 -1.45117,-6.962891 z"/><path fill="#D98C71"
     d="M 94.142578,60.931641 C 54.631684,81.246153 27.630927,122.41046 27.630859,169.92969 c 0,18.28302 3.997424,35.62541 11.166016,51.20117 4.147092,2.98474 8.519875,5.64518 13.048828,7.88281 C 41.438637,211.7536 35.449219,191.53542 35.449219,169.92969 35.449291,125.44985 60.83345,86.84854 97.892578,67.835938 c -1.076559,-2.353764 -2.333276,-4.667189 -3.75,-6.904297 z"/><path fill="#E29D82"
     d="M 84.048828,48.875 C 41.253167,72.264996 12.250034,117.68638 12.25,169.92969 c 0,9.2829 0.916003,18.35034 2.662109,27.11719 3.38757,4.8158 7.343596,9.48164 11.742188,13.81835 C 22.383104,197.99201 20.070312,184.22918 20.070312,169.92969 20.070384,119.96778 48.3014,76.550596 89.669922,54.773438 87.935064,52.678657 86.054753,50.699076 84.048828,48.875 Z"/><path fill="#EBAE93"
     d="m 69.447266,39.585938 c -7.324582,4.540725 -14.237402,9.682721 -20.669922,15.355468 -0.211199,4.300932 -1.072405,9.059358 -3.115235,13.839844 9.407794,-9.713153 20.15685,-18.119803 31.947266,-24.919922 -2.592641,-1.705867 -5.324231,-3.151449 -8.162109,-4.27539 z M 31.289062,86.109375 C 17.717138,96.750193 10.173095,108.56836 6.1992188,120.19922 2.1992187,129.59922 0,140.00039 0,150.90039 c 0,8 1.2003906,15.70039 3.4003906,22.90039 0.4690006,1.46954 0.9773844,2.92923 1.5214844,4.37305 -0.152752,-2.72874 -0.2304688,-5.47744 -0.2304688,-8.24414 2.01e-5,-31.20438 9.8456698,-60.12409 26.5976558,-83.820315 z"/><path fill="#F1BEA4"
     d="m 55.800781,36.900391 c -3.1,0 -6.20039,0.30039 -9.40039,0.90039 0,0 1.159601,3.003328 1.876953,7.705078 3.611981,-2.960556 7.354682,-5.765894 11.21875,-8.408203 -1.22161,-0.130105 -2.453527,-0.197265 -3.695313,-0.197265 z"/><path fill="#A93B28" fill-rule="evenodd"
     d="M253,142.2c0,0.1,0,0.2,0,0.3c0,0.2,0,0.3,0,0.4c0,5.9-4.8,10.7-10.7,10.7h-18.7c-2.8,2.2-5.6,4.7-8.6,7c-0.9,0.7-1.8,1.3-2.7,1.9c-1,0.8-2,1.4-3.1,2c-0.8,0.3-1.6,0.8-2.3,1.1c-2.7,1.2-5.5,2-8.5,2c-0.2,0-0.3,0-0.6,0c-0.9,0-1.9-0.1-2.8-0.2c-8.5-0.9-12.6-6-16.4-13.2c-0.1-0.1-0.2-0.2-0.3-0.3c-2.7-3.2-5.1-4.9-7.1-5.7c-6.6-4.2-14.4-6.8-22.7-6.9l0.6,4.1c20.9,0.7,37.7,17.8,37.7,38.9c0,11.9-5.5,22.6-13.9,29.7c6.6,1,12.2,4.9,15.7,10.2c1.1,1.7,2,3.7,2.7,5.7c0.7,2.1,1.1,4.5,1.1,6.8h-4.8h-5.2h-12.2h-23.7h-30.2c-16.4-7.8-30.1-21.3-37.2-38c-3-6.9-4.9-14.5-5.6-22.3c-0.7-4.2-1-8.6-1-12.9c0-18.6,20.9-57.1,52.1-65.9c0,0,23.8-9.1,26.6-10.2c24.2-10,16.9-23.3,23-32.8c7.3-11.5,17.3-12.4,17.3-12.4L205,25.8l4.7-5.5c3.6,0,6.5,12.7,7,23.4c27.4,12.8,31.4,40.9,31.4,52c0,12-6.3,17.9-15.6,20.3c-4.2,1-10,1.3-15.3,1.3c-6.2,0-11.5-0.4-11.5-0.4c0,0.9,7.3,15.1,7.3,15.1h20.2c1.2-0.1,2.6-0.2,3.8-0.2c1.2,0,2.4,0.1,3.7,0.2h1.6c3,0,5.7,1.3,7.7,3.3c1.3,1.2,2.1,2.4,2.3,3.8C252.8,140.2,253,141.2,253,142.2z M207.1,72c0,4.1,3.3,7.5,7.5,7.5s7.5-3.3,7.5-7.5c0-4.1-3.3-7.5-7.5-7.5S207,67.9,207.1,72z"/></g></g><g fill="#4F6B35" transform="translate(36,330)"><path fill-rule="evenodd" d="M9.45,-17.52 L11.72,-12.92 L12.23,-11.61 L14.34,-7.63 L15.03,-7.29 L14.97,-6.32 L16.97,-1.76 L18.32,0.44 L22.95,-2.11 L22.99,-3.76 L21.13,-5.76 L20.10,-7.92 L20.10,-7.85 L19.30,-9.52 L18.95,-9.67 L18.95,-10.41 L16.68,-14.30 C16.28,-14.86 15.95,-15.14 15.48,-15.66 L15.48,-16.63 C15.14,-17.30 14.46,-18.28 14.05,-19.08 L15.66,-21.24 L16.63,-22.44 L18.44,-24.60 L21.06,-27.78 L21.46,-31.20 L18.73,-33.71 C18.68,-33.71 17.77,-33.42 17.70,-33.47 L17.37,-34.89 L8.32,-42.77 L3.83,-40.94 L4.05,-36.03 L4.34,-25.17 L3.87,-24.02 L3.98,-21.06 L4.20,-14.41 L4.20,-12.19 L4.71,-11.45 L3.87,-9.23 L3.54,-0.18 L7.29,0.18 L9.56,-0.73 L9.52,-5.47 L9.34,-5.98 L9.16,-11.68 L9.12,-17.88 L9.45,-17.52 Z M9.23,-22.88 L8.98,-27.95 L8.87,-28.58 L8.76,-28.91 L8.54,-29.96 L8.98,-31.02 L8.98,-31.60 L9.12,-35.98 L14.34,-30.80 L14.74,-30.51 L15.88,-29.09 L15.26,-28.29 C14.52,-27.26 13.14,-25.51 12.36,-24.53 L9.52,-21.02 L9.12,-20.77 L9.23,-22.88 Z M39.16,-11.68 L39.63,-9.79 L40.14,-9.45 L39.67,-8.87 L39.92,-7.29 L40.65,-0.11 L41.61,0.40 L42.37,0.40 L46.57,-0.98 L45.95,-3.42 L45.08,-4.34 L45.43,-4.78 L44.86,-8.36 L43.43,-13.65 L43.43,-14.46 L40.70,-28.18 L40.03,-28.69 L40.43,-29.71 L38.61,-38.43 L38.36,-39.01 L38.21,-39.45 L38.25,-41.45 L37.30,-41.90 L32.63,-41.68 L32.05,-38.10 L31.54,-35.69 L31.14,-33.42 L31.76,-32.56 L30.73,-31.38 L29.04,-23.75 L29.04,-22.71 L28.69,-21.53 L28.53,-20.44 L27.38,-13.43 L27.44,-12.30 L26.82,-11.68 L26.24,-8.09 L24.71,-1.13 L26.71,0.11 L30.22,0.44 L30.85,-3.36 L30.47,-4.96 L30.98,-5.58 L31.60,-9.63 L32.74,-10.07 L33.25,-10.30 L37.07,-11.21 L38.21,-12.01 L38.25,-12.01 L39.05,-12.12 L39.16,-11.68 Z M33.94,-24.71 L33.65,-25.62 L34.23,-25.91 L35.36,-32.85 L36.21,-26.82 L36.43,-25.80 L36.67,-22.84 L37.81,-16.68 L36.21,-16.28 L32.51,-15.14 L32.56,-15.54 L33.25,-19.24 L33.18,-19.19 L33.94,-24.71 Z M61.27,-41.79 L58.64,-41.61 C57.84,-41.61 57.11,-41.61 56.24,-41.68 C55.80,-41.68 55.29,-41.28 54.93,-41.28 L53.86,-41.72 L48.33,-42.01 L48.17,-37.34 L48.84,-36.67 L52.33,-36.78 C52.48,-36.78 52.84,-36.83 53.24,-36.94 L53.51,-37.23 L54.78,-37.07 L55.11,-34.74 L54.89,-31.09 L55.22,-28.40 L54.93,-16.79 L54.66,-8.76 L55.18,-8.21 L54.31,-4.60 L54.31,-0.22 L57.33,0.22 L58.93,-0.07 L60.58,-0.98 L60.11,-5.00 L60.11,-15.72 L59.45,-16.79 L59.49,-16.86 L60.00,-20.26 L59.96,-24.64 L59.96,-25.62 C59.96,-26.02 59.89,-26.53 59.89,-26.98 C59.85,-27.33 59.85,-28.75 59.85,-29.27 L59.96,-33.47 L59.71,-34.74 L60.07,-37.12 L61.82,-37.12 L63.54,-37.01 L64.12,-36.83 L66.67,-36.83 L66.83,-39.52 L66.50,-41.90 L61.27,-41.79 Z M83.17,-11.68 L83.64,-9.79 L84.15,-9.45 L83.68,-8.87 L83.93,-7.29 L84.66,-0.11 L85.62,0.40 L86.37,0.40 L90.58,-0.98 L89.95,-3.42 L89.09,-4.34 L89.44,-4.78 L88.86,-8.36 L87.44,-13.65 L87.44,-14.46 L84.71,-28.18 L84.04,-28.69 L84.44,-29.71 L82.62,-38.43 L82.37,-39.01 L82.22,-39.45 L82.26,-41.45 L81.30,-41.90 L76.63,-41.68 L76.06,-38.10 L75.54,-35.69 L75.14,-33.42 L75.77,-32.56 L74.74,-31.38 L73.05,-23.75 L73.05,-22.71 L72.70,-21.53 L72.54,-20.44 L71.38,-13.43 L71.45,-12.30 L70.83,-11.68 L70.25,-8.09 L68.72,-1.13 L70.72,0.11 L74.23,0.44 L74.85,-3.36 L74.48,-4.96 L74.99,-5.58 L75.61,-9.63 L76.74,-10.07 L77.26,-10.30 L81.08,-11.21 L82.22,-12.01 L82.26,-12.01 L83.06,-12.12 L83.17,-11.68 Z M77.95,-24.71 L77.66,-25.62 L78.23,-25.91 L79.37,-32.85 L80.21,-26.82 L80.44,-25.80 L80.68,-22.84 L81.81,-16.68 L80.21,-16.28 L76.52,-15.14 L76.57,-15.54 L77.26,-19.24 L77.19,-19.19 L77.95,-24.71 Z M105.28,-41.79 L102.65,-41.61 C101.85,-41.61 101.12,-41.61 100.25,-41.68 C99.81,-41.68 99.29,-41.28 98.94,-41.28 L97.87,-41.72 L92.33,-42.01 L92.18,-37.34 L92.85,-36.67 L96.34,-36.78 C96.49,-36.78 96.85,-36.83 97.25,-36.94 L97.52,-37.23 L98.78,-37.07 L99.12,-34.74 L98.89,-31.09 L99.23,-28.40 L98.94,-16.79 L98.67,-8.76 L99.18,-8.21 L98.32,-4.60 L98.32,-0.22 L101.34,0.22 L102.94,-0.07 L104.59,-0.98 L104.12,-5.00 L104.12,-15.72 L103.45,-16.79 L103.50,-16.86 L104.01,-20.26 L103.96,-24.64 L103.96,-25.62 C103.96,-26.02 103.90,-26.53 103.90,-26.98 C103.85,-27.33 103.85,-28.75 103.85,-29.27 L103.96,-33.47 L103.72,-34.74 L104.08,-37.12 L105.83,-37.12 L107.55,-37.01 L108.12,-36.83 L110.68,-36.83 L110.84,-39.52 L110.50,-41.90 L105.28,-41.79 Z M123.09,-41.96 L122.58,-41.90 L120.46,-41.90 L120.35,-41.50 L120.02,-39.79 L119.77,-39.45 L116.70,-31.76 L116.99,-31.13 L115.97,-30.40 L112.90,-22.95 L112.44,-22.66 L112.55,-19.08 L113.93,-16.17 L115.97,-11.32 L117.68,-7.81 L118.31,-7.81 L118.13,-6.83 L120.13,-1.87 L120.17,0.00 L125.36,0.07 L125.47,-0.58 L126.16,-2.40 L129.23,-9.67 L130.54,-12.41 L130.60,-13.32 L131.05,-13.90 L133.85,-19.53 L134.01,-22.66 L132.07,-26.86 L130.54,-30.29 L129.98,-30.29 L129.69,-31.82 L126.78,-38.94 L125.64,-42.08 L123.09,-41.96 Z M123.20,-7.23 L120.69,-13.79 L119.55,-16.10 L118.42,-16.90 L119.00,-17.59 L118.48,-19.24 L117.73,-21.13 L117.68,-21.79 L119.55,-26.71 L119.15,-27.62 L119.95,-27.84 L123.09,-36.09 L123.42,-35.00 L124.73,-31.53 L125.76,-30.91 L125.24,-30.22 L127.47,-24.48 L128.16,-22.55 L128.60,-21.13 L125.82,-14.30 L125.87,-13.25 L125.93,-13.25 L125.24,-12.59 L123.42,-6.60 L123.20,-7.23 Z M143.12,-10.14 L143.23,-9.52 L141.66,-8.76 C141.30,-8.21 141.01,-7.69 140.68,-7.12 C140.17,-6.32 139.77,-5.69 139.19,-4.89 L138.12,-3.94 L137.25,-1.82 L141.92,1.09 L143.46,-0.80 L144.10,-2.62 L144.04,-2.40 C144.21,-2.74 144.37,-3.18 144.61,-3.58 L146.88,-6.67 L149.95,-10.41 L152.00,-13.79 L151.89,-18.21 L150.35,-19.35 L145.06,-24.31 L144.15,-24.89 L143.08,-26.42 L141.99,-27.73 L143.70,-30.00 L143.81,-30.40 L144.37,-31.20 L147.62,-35.00 L148.13,-36.03 L149.62,-37.52 L151.15,-39.79 L147.79,-42.48 L146.08,-42.63 L144.72,-40.36 C144.66,-40.19 144.88,-39.92 144.77,-39.67 L143.64,-38.94 L142.17,-36.94 L142.28,-36.32 L139.37,-32.96 L136.59,-28.98 L136.63,-25.40 L139.37,-22.71 L143.75,-18.68 L144.88,-18.17 L146.82,-15.83 L143.12,-10.14 Z M156.28,-41.56 L156.90,-37.52 L156.79,-32.96 L157.08,-25.80 L157.59,-22.71 L157.25,-10.41 L157.25,-10.07 L157.12,-9.16 L157.81,-8.36 L156.85,-6.09 L156.90,-5.87 L156.74,-5.80 L156.68,0.11 L159.70,0.18 L162.70,0.07 L162.77,-2.85 L162.55,-3.94 L162.48,-4.56 L162.44,-7.34 L162.19,-10.07 L162.19,-19.41 L164.48,-14.68 L164.42,-14.57 L166.35,-11.45 L166.06,-10.70 L169.09,-3.94 L170.73,0.29 L172.15,0.33 L176.27,-1.93 L174.60,-5.63 L173.82,-5.80 L174.09,-6.60 L172.15,-9.85 L170.18,-14.23 L166.82,-21.93 L166.53,-22.37 L170.62,-30.18 L170.44,-30.33 L170.62,-30.62 L174.09,-36.38 L175.76,-39.41 L173.98,-40.76 L170.51,-42.12 L168.75,-37.98 L168.97,-36.56 L167.37,-34.96 L166.42,-32.51 L164.13,-27.04 L163.17,-25.51 L162.30,-23.28 L162.15,-22.84 L162.15,-24.53 L162.04,-27.26 L162.59,-41.39 L160.43,-42.12 L156.28,-41.56 Z M186.17,-17.52 L188.43,-12.92 L188.95,-11.61 L191.06,-7.63 L191.75,-7.29 L191.68,-6.32 L193.68,-1.76 L195.04,0.44 L199.67,-2.11 L199.71,-3.76 L197.84,-5.76 L196.82,-7.92 L196.82,-7.85 L196.02,-9.52 L195.66,-9.67 L195.66,-10.41 L193.39,-14.30 C192.99,-14.86 192.66,-15.14 192.19,-15.66 L192.19,-16.63 C191.86,-17.30 191.17,-18.28 190.77,-19.08 L192.37,-21.24 L193.35,-22.44 L195.15,-24.60 L197.78,-27.78 L198.18,-31.20 L195.44,-33.71 C195.40,-33.71 194.48,-33.42 194.42,-33.47 L194.08,-34.89 L185.03,-42.77 L180.54,-40.94 L180.76,-36.03 L181.05,-25.17 L180.58,-24.02 L180.70,-21.06 L180.92,-14.41 L180.92,-12.19 L181.43,-11.45 L180.58,-9.23 L180.25,-0.18 L184.01,0.18 L186.28,-0.73 L186.23,-5.47 L186.06,-5.98 L185.88,-11.68 L185.83,-17.88 L186.17,-17.52 Z M185.94,-22.88 L185.70,-27.95 L185.59,-28.58 L185.48,-28.91 L185.25,-29.96 L185.70,-31.02 L185.70,-31.60 L185.83,-35.98 L191.06,-30.80 L191.46,-30.51 L192.59,-29.09 L191.97,-28.29 C191.24,-27.26 189.86,-25.51 189.08,-24.53 L186.23,-21.02 L185.83,-20.77 L185.94,-22.88 Z"/></g>
</svg>
