<svg xmlns="http://www.w3.org/2000/svg" viewBox="-8 -8 272 272">
<!-- Ratatoskr logo - GPL-3.0-or-later. Derived from CC0 artwork, see upstream/README.md.
     Generated by tools/logo (gradlew :tools:logo:run). -->
<path d="M152.51,17.74 L146.47,11.10 L140.65,5.67 L134.64,1.08 L128.00,-2.99 L119.59,2.32 L111.79,8.87 L104.18,16.94 L95.45,27.86 L106.19,30.29 L112.40,22.71 L117.67,17.10 L122.55,12.69 L128.00,8.67 L135.23,14.20 L142.63,21.62 L149.58,30.00 L165.65,50.98 L175.66,61.98 L181.33,66.99 L187.36,71.45 L194.56,75.97 L202.83,80.53 L203.41,69.50 L191.01,61.79 L185.77,57.68 L180.90,53.10 L172.45,43.49 L152.51,17.74 Z M75.90,27.78 L67.01,26.58 L59.06,26.16 L51.50,26.50 L43.80,27.66 L40.77,37.13 L39.01,47.16 L38.36,58.23 L38.70,72.21 L48.49,67.17 L48.38,57.37 L48.80,49.68 L49.70,43.17 L51.29,36.58 L60.39,36.18 L70.83,37.10 L81.54,39.06 L107.33,44.80 L122.07,46.79 L129.64,46.98 L137.12,46.52 L145.55,45.36 L154.81,43.54 L148.16,34.71 L133.71,36.78 L127.05,36.99 L120.37,36.62 L107.73,34.69 L75.90,27.78 Z M23.67,84.72 L16.09,89.51 L9.73,94.30 L4.16,99.42 L-1.00,105.25 L2.77,114.46 L7.87,123.28 L14.49,132.17 L23.73,142.66 L27.99,132.51 L21.61,125.08 L16.99,118.91 L13.49,113.35 L10.48,107.28 L17.19,101.12 L25.78,95.12 L35.24,89.73 L58.69,77.55 L71.26,69.60 L77.18,64.89 L82.61,59.72 L88.32,53.42 L94.25,46.07 L83.48,43.57 L73.74,54.45 L68.78,58.89 L63.42,62.90 L52.49,69.55 L23.67,84.72 Z M20.26,161.91 L17.53,170.45 L15.73,178.21 L14.76,185.71 L14.56,193.49 L23.37,198.12 L32.94,201.60 L43.73,204.16 L57.55,206.25 L54.29,195.74 L44.62,194.15 L37.12,192.40 L30.86,190.38 L24.65,187.67 L25.83,178.64 L28.56,168.52 L32.34,158.31 L42.47,133.91 L47.00,119.74 L48.50,112.32 L49.34,104.87 L49.66,96.37 L49.48,86.93 L39.63,91.94 L39.16,106.54 L38.21,113.13 L36.68,119.64 L32.58,131.76 L20.26,161.91 Z M67.16,222.97 L70.66,231.53 L74.27,238.63 L78.35,245.00 L83.20,251.09 L92.92,248.97 L102.49,245.49 L112.40,240.51 L124.34,233.23 L115.07,227.27 L106.65,232.27 L99.77,235.75 L93.68,238.22 L87.19,240.14 L82.29,232.46 L77.87,222.96 L74.20,212.71 L66.28,187.50 L60.63,173.74 L57.02,167.09 L52.87,160.84 L47.66,154.12 L41.45,147.01 L37.13,157.18 L46.15,168.67 L49.66,174.32 L52.67,180.30 L57.33,192.21 L67.16,222.97 Z M142.44,239.86 L150.62,244.17 L157.95,247.28 L165.17,249.54 L172.80,251.09 L178.89,243.22 L183.98,234.40 L188.37,224.22 L192.83,210.96 L181.91,212.36 L178.67,221.60 L175.64,228.68 L172.56,234.49 L168.81,240.14 L160.13,237.41 L150.64,232.97 L141.24,227.47 L118.96,213.25 L105.79,206.34 L98.75,203.57 L91.56,201.45 L83.25,199.66 L73.92,198.20 L77.15,208.77 L91.44,211.77 L97.76,213.84 L103.91,216.48 L115.14,222.62 L142.44,239.86 Z M210.96,204.40 L220.00,202.45 L227.62,200.12 L234.60,197.21 L241.44,193.49 L241.04,183.55 L239.27,173.53 L236.10,162.90 L230.99,149.88 L223.52,157.97 L226.98,167.14 L229.21,174.51 L230.59,180.93 L231.35,187.67 L222.94,191.16 L212.81,193.86 L202.08,195.69 L175.88,199.12 L161.35,202.28 L154.17,204.69 L147.30,207.69 L139.78,211.66 L131.70,216.54 L140.96,222.56 L153.83,215.67 L160.02,213.19 L166.42,211.26 L178.96,208.75 L210.96,204.40 Z M240.67,133.20 L246.33,125.89 L250.67,119.22 L254.15,112.50 L257.00,105.25 L250.31,97.89 L242.50,91.35 L233.24,85.25 L220.96,78.56 L220.44,89.56 L228.98,94.36 L235.42,98.57 L240.61,102.61 L245.52,107.28 L241.32,115.36 L235.30,123.93 L228.26,132.23 L210.39,151.70 L201.29,163.47 L197.34,169.92 L194.00,176.64 L190.80,184.52 L187.74,193.45 L198.71,192.11 L204.14,178.55 L207.29,172.68 L210.95,167.09 L218.95,157.10 L240.67,133.20 Z M217.65,59.56 L217.29,50.33 L216.32,42.42 L214.67,35.04 L212.20,27.66 L202.34,26.32 L192.16,26.32 L181.14,27.61 L167.43,30.37 L174.10,39.13 L183.73,37.32 L191.38,36.40 L197.94,36.16 L204.71,36.59 L206.68,45.47 L207.59,55.91 L207.52,66.80 L206.35,93.20 L206.95,108.06 L208.07,115.54 L209.83,122.84 L212.43,130.93 L215.83,139.73 L223.37,131.66 L218.82,117.78 L217.46,111.26 L216.67,104.62 L216.37,91.83 L217.65,59.56 Z" fill="#4F6B35" fill-rule="evenodd" stroke="none"/><g transform="translate(57.6,56.5) scale(0.55)"><path fill="#C56A4F"
     d="M 102.14453,91.707031 C 75.88387,107.83383 58.388797,136.81742 58.388672,169.92969 c 0,26.24358 10.989932,49.8941 28.623047,66.60547 0.78917,0.0287 1.606685,0.0645 2.388672,0.0645 h 13.798829 c -21.700005,-14.2 -36.100001,-38.99883 -36.000001,-66.79883 0,-4.6 0.401562,-9.10039 1.101562,-13.40039 0.9,-5.3 2.19961,-10.40078 4.09961,-15.30078 4.6,-12.2 12.3,-22.99961 22,-31.59961 3.931025,-5.43652 6.883519,-11.153028 7.744139,-17.792969 z"/><path fill="#CF7B60"
     d="m 100.54883,74.9375 c -34.212592,17.872891 -57.538997,53.68416 -57.539064,94.99219 0,23.98286 7.863534,46.11295 21.154296,63.95508 3.994665,1.1882 8.055807,2.01583 12.144532,2.42382 -15.837028,-17.59471 -25.480469,-40.87153 -25.480469,-66.3789 1.42e-4,-37.40057 20.735424,-70.006176 51.324215,-86.935549 -0.0436,-0.3653 -0.0948,-0.729088 -0.15234,-1.09375 -0.28228,-2.301653 -0.7723,-4.633659 -1.45117,-6.962891 z"/><path fill="#D98C71"
     d="M 94.142578,60.931641 C 54.631684,81.246153 27.630927,122.41046 27.630859,169.92969 c 0,18.28302 3.997424,35.62541 11.166016,51.20117 4.147092,2.98474 8.519875,5.64518 13.048828,7.88281 C 41.438637,211.7536 35.449219,191.53542 35.449219,169.92969 35.449291,125.44985 60.83345,86.84854 97.892578,67.835938 c -1.076559,-2.353764 -2.333276,-4.667189 -3.75,-6.904297 z"/><path fill="#E29D82"
     d="M 84.048828,48.875 C 41.253167,72.264996 12.250034,117.68638 12.25,169.92969 c 0,9.2829 0.916003,18.35034 2.662109,27.11719 3.38757,4.8158 7.343596,9.48164 11.742188,13.81835 C 22.383104,197.99201 20.070312,184.22918 20.070312,169.92969 20.070384,119.96778 48.3014,76.550596 89.669922,54.773438 87.935064,52.678657 86.054753,50.699076 84.048828,48.875 Z"/><path fill="#EBAE93"
     d="m 69.447266,39.585938 c -7.324582,4.540725 -14.237402,9.682721 -20.669922,15.355468 -0.211199,4.300932 -1.072405,9.059358 -3.115235,13.839844 9.407794,-9.713153 20.15685,-18.119803 31.947266,-24.919922 -2.592641,-1.705867 -5.324231,-3.151449 -8.162109,-4.27539 z M 31.289062,86.109375 C 17.717138,96.750193 10.173095,108.56836 6.1992188,120.19922 2.1992187,129.59922 0,140.00039 0,150.90039 c 0,8 1.2003906,15.70039 3.4003906,22.90039 0.4690006,1.46954 0.9773844,2.92923 1.5214844,4.37305 -0.152752,-2.72874 -0.2304688,-5.47744 -0.2304688,-8.24414 2.01e-5,-31.20438 9.8456698,-60.12409 26.5976558,-83.820315 z"/><path fill="#F1BEA4"
     d="m 55.800781,36.900391 c -3.1,0 -6.20039,0.30039 -9.40039,0.90039 0,0 1.159601,3.003328 1.876953,7.705078 3.611981,-2.960556 7.354682,-5.765894 11.21875,-8.408203 -1.22161,-0.130105 -2.453527,-0.197265 -3.695313,-0.197265 z"/><path fill="#A93B28" fill-rule="evenodd"
     d="M253,142.2c0,0.1,0,0.2,0,0.3c0,0.2,0,0.3,0,0.4c0,5.9-4.8,10.7-10.7,10.7h-18.7c-2.8,2.2-5.6,4.7-8.6,7c-0.9,0.7-1.8,1.3-2.7,1.9c-1,0.8-2,1.4-3.1,2c-0.8,0.3-1.6,0.8-2.3,1.1c-2.7,1.2-5.5,2-8.5,2c-0.2,0-0.3,0-0.6,0c-0.9,0-1.9-0.1-2.8-0.2c-8.5-0.9-12.6-6-16.4-13.2c-0.1-0.1-0.2-0.2-0.3-0.3c-2.7-3.2-5.1-4.9-7.1-5.7c-6.6-4.2-14.4-6.8-22.7-6.9l0.6,4.1c20.9,0.7,37.7,17.8,37.7,38.9c0,11.9-5.5,22.6-13.9,29.7c6.6,1,12.2,4.9,15.7,10.2c1.1,1.7,2,3.7,2.7,5.7c0.7,2.1,1.1,4.5,1.1,6.8h-4.8h-5.2h-12.2h-23.7h-30.2c-16.4-7.8-30.1-21.3-37.2-38c-3-6.9-4.9-14.5-5.6-22.3c-0.7-4.2-1-8.6-1-12.9c0-18.6,20.9-57.1,52.1-65.9c0,0,23.8-9.1,26.6-10.2c24.2-10,16.9-23.3,23-32.8c7.3-11.5,17.3-12.4,17.3-12.4L205,25.8l4.7-5.5c3.6,0,6.5,12.7,7,23.4c27.4,12.8,31.4,40.9,31.4,52c0,12-6.3,17.9-15.6,20.3c-4.2,1-10,1.3-15.3,1.3c-6.2,0-11.5-0.4-11.5-0.4c0,0.9,7.3,15.1,7.3,15.1h20.2c1.2-0.1,2.6-0.2,3.8-0.2c1.2,0,2.4,0.1,3.7,0.2h1.6c3,0,5.7,1.3,7.7,3.3c1.3,1.2,2.1,2.4,2.3,3.8C252.8,140.2,253,141.2,253,142.2z M207.1,72c0,4.1,3.3,7.5,7.5,7.5s7.5-3.3,7.5-7.5c0-4.1-3.3-7.5-7.5-7.5S207,67.9,207.1,72z"/></g>
</svg>
