<?xml version="1.0" encoding="UTF-8" standalone="no"?>
<svg xmlns="http://www.w3.org/2000/svg" viewBox="0 0 256 256">
  <!-- Ratatoskr mark - GPL-3.0-or-later. Derived from CC0 artwork, see upstream/README.md.
       Tail wave bands hand-edited in Inkscape; this file is the source of truth for the
       mark's geometry. It is deliberately monochrome: each path carries a data-ramp index
       (its position in COPPER_RAMP), not a final color. tools/logo paints the mark from the
       ramp for both themes (light = ramp[i], dark = ramp[i+2]), so no light->dark recoloring
       is involved. The #808080 fills are placeholders for the Inkscape preview only. -->
  <path fill="#808080" data-ramp="1"
     d="M 102.14453,91.707031 C 75.88387,107.83383 58.388797,136.81742 58.388672,169.92969 c 0,26.24358 10.989932,49.8941 28.623047,66.60547 0.78917,0.0287 1.606685,0.0645 2.388672,0.0645 h 13.798829 c -21.700005,-14.2 -36.100001,-38.99883 -36.000001,-66.79883 0,-4.6 0.401562,-9.10039 1.101562,-13.40039 0.9,-5.3 2.19961,-10.40078 4.09961,-15.30078 4.6,-12.2 12.3,-22.99961 22,-31.59961 3.931025,-5.43652 6.883519,-11.153028 7.744139,-17.792969 z"/>
  <path fill="#808080" data-ramp="2"
     d="m 100.54883,74.9375 c -34.212592,17.872891 -57.538997,53.68416 -57.539064,94.99219 0,23.98286 7.863534,46.11295 21.154296,63.95508 3.994665,1.1882 8.055807,2.01583 12.144532,2.42382 -15.837028,-17.59471 -25.480469,-40.87153 -25.480469,-66.3789 1.42e-4,-37.40057 20.735424,-70.006176 51.324215,-86.935549 -0.0436,-0.3653 -0.0948,-0.729088 -0.15234,-1.09375 -0.28228,-2.301653 -0.7723,-4.633659 -1.45117,-6.962891 z"/>
  <path fill="#808080" data-ramp="3"
     d="M 94.142578,60.931641 C 54.631684,81.246153 27.630927,122.41046 27.630859,169.92969 c 0,18.28302 3.997424,35.62541 11.166016,51.20117 4.147092,2.98474 8.519875,5.64518 13.048828,7.88281 C 41.438637,211.7536 35.449219,191.53542 35.449219,169.92969 35.449291,125.44985 60.83345,86.84854 97.892578,67.835938 c -1.076559,-2.353764 -2.333276,-4.667189 -3.75,-6.904297 z"/>
  <path fill="#808080" data-ramp="4"
     d="M 84.048828,48.875 C 41.253167,72.264996 12.250034,117.68638 12.25,169.92969 c 0,9.2829 0.916003,18.35034 2.662109,27.11719 3.38757,4.8158 7.343596,9.48164 11.742188,13.81835 C 22.383104,197.99201 20.070312,184.22918 20.070312,169.92969 20.070384,119.96778 48.3014,76.550596 89.669922,54.773438 87.935064,52.678657 86.054753,50.699076 84.048828,48.875 Z"/>
  <path fill="#808080" data-ramp="5"
     d="m 69.447266,39.585938 c -7.324582,4.540725 -14.237402,9.682721 -20.669922,15.355468 -0.211199,4.300932 -1.072405,9.059358 -3.115235,13.839844 9.407794,-9.713153 20.15685,-18.119803 31.947266,-24.919922 -2.592641,-1.705867 -5.324231,-3.151449 -8.162109,-4.27539 z M 31.289062,86.109375 C 17.717138,96.750193 10.173095,108.56836 6.1992188,120.19922 2.1992187,129.59922 0,140.00039 0,150.90039 c 0,8 1.2003906,15.70039 3.4003906,22.90039 0.4690006,1.46954 0.9773844,2.92923 1.5214844,4.37305 -0.152752,-2.72874 -0.2304688,-5.47744 -0.2304688,-8.24414 2.01e-5,-31.20438 9.8456698,-60.12409 26.5976558,-83.820315 z"/>
  <path fill="#808080" data-ramp="6"
     d="m 55.800781,36.900391 c -3.1,0 -6.20039,0.30039 -9.40039,0.90039 0,0 1.159601,3.003328 1.876953,7.705078 3.611981,-2.960556 7.354682,-5.765894 11.21875,-8.408203 -1.22161,-0.130105 -2.453527,-0.197265 -3.695313,-0.197265 z"/>
  <path fill="#808080" fill-rule="evenodd" data-ramp="0"
     d="M253,142.2c0,0.1,0,0.2,0,0.3c0,0.2,0,0.3,0,0.4c0,5.9-4.8,10.7-10.7,10.7h-18.7c-2.8,2.2-5.6,4.7-8.6,7c-0.9,0.7-1.8,1.3-2.7,1.9c-1,0.8-2,1.4-3.1,2c-0.8,0.3-1.6,0.8-2.3,1.1c-2.7,1.2-5.5,2-8.5,2c-0.2,0-0.3,0-0.6,0c-0.9,0-1.9-0.1-2.8-0.2c-8.5-0.9-12.6-6-16.4-13.2c-0.1-0.1-0.2-0.2-0.3-0.3c-2.7-3.2-5.1-4.9-7.1-5.7c-6.6-4.2-14.4-6.8-22.7-6.9l0.6,4.1c20.9,0.7,37.7,17.8,37.7,38.9c0,11.9-5.5,22.6-13.9,29.7c6.6,1,12.2,4.9,15.7,10.2c1.1,1.7,2,3.7,2.7,5.7c0.7,2.1,1.1,4.5,1.1,6.8h-4.8h-5.2h-12.2h-23.7h-30.2c-16.4-7.8-30.1-21.3-37.2-38c-3-6.9-4.9-14.5-5.6-22.3c-0.7-4.2-1-8.6-1-12.9c0-18.6,20.9-57.1,52.1-65.9c0,0,23.8-9.1,26.6-10.2c24.2-10,16.9-23.3,23-32.8c7.3-11.5,17.3-12.4,17.3-12.4L205,25.8l4.7-5.5c3.6,0,6.5,12.7,7,23.4c27.4,12.8,31.4,40.9,31.4,52c0,12-6.3,17.9-15.6,20.3c-4.2,1-10,1.3-15.3,1.3c-6.2,0-11.5-0.4-11.5-0.4c0,0.9,7.3,15.1,7.3,15.1h20.2c1.2-0.1,2.6-0.2,3.8-0.2c1.2,0,2.4,0.1,3.7,0.2h1.6c3,0,5.7,1.3,7.7,3.3c1.3,1.2,2.1,2.4,2.3,3.8C252.8,140.2,253,141.2,253,142.2z M207.1,72c0,4.1,3.3,7.5,7.5,7.5s7.5-3.3,7.5-7.5c0-4.1-3.3-7.5-7.5-7.5S207,67.9,207.1,72z"/>
</svg>
