<svg xmlns="http://www.w3.org/2000/svg" viewBox="0 0 272 350">
<!-- Ratatoskr lockup - GPL-3.0-or-later. Derived from CC0 artwork, see upstream/README.md.
     Wordmark: "Norse Bold" by Joel Carrouche, converted to outlines (license permits use in
     logos/artwork; the font FILE itself must not be committed to this repository). -->
<g transform="translate(8,8)"><path d="M152.48,17.70 L146.48,11.11 L140.66,5.68 L134.69,1.11 L128.19,-2.88 L120.48,1.68 L112.22,8.47 L104.21,16.89 L95.43,27.87 L106.18,30.29 L112.10,23.05 L117.36,17.40 L122.57,12.67 L128.00,8.67 L135.25,14.22 L142.70,21.70 L149.26,29.57 L165.86,51.19 L175.71,61.98 L181.35,66.97 L187.38,71.43 L194.58,75.96 L202.82,80.51 L203.40,69.47 L190.66,61.51 L185.81,57.67 L180.98,53.13 L172.36,43.32 L152.48,17.70 Z M75.85,27.79 L67.04,26.59 L59.08,26.17 L51.57,26.50 L44.22,27.59 L42.73,30.57 L41.18,35.53 L39.15,46.03 L38.38,57.62 L38.71,72.20 L48.50,67.15 L48.38,57.79 L48.77,50.09 L49.71,43.11 L51.28,36.59 L60.42,36.19 L70.93,37.13 L80.99,38.95 L107.61,44.85 L122.13,46.79 L129.65,46.98 L137.13,46.52 L145.56,45.36 L154.84,43.54 L148.18,34.71 L133.25,36.81 L127.08,36.99 L120.45,36.63 L107.53,34.65 L75.85,27.79 Z M23.67,84.72 L16.14,89.48 L9.77,94.28 L4.23,99.38 L-0.66,104.89 L0.04,108.12 L1.82,112.48 L7.22,122.35 L14.09,131.74 L23.73,142.71 L27.98,132.55 L21.85,125.44 L17.21,119.29 L13.45,113.33 L10.47,107.32 L17.25,101.09 L25.91,95.04 L34.79,89.96 L58.97,77.37 L71.29,69.55 L77.18,64.84 L82.62,59.67 L87.98,53.77 L94.21,46.06 L83.44,43.58 L73.40,54.74 L68.78,58.85 L63.37,62.91 L52.34,69.61 L23.67,84.72 Z M20.28,161.93 L17.57,170.40 L15.77,178.16 L14.79,185.62 L14.59,193.05 L17.26,195.03 L21.88,197.42 L31.87,201.26 L43.16,204.04 L57.53,206.25 L54.26,195.73 L45.06,194.23 L37.55,192.50 L30.83,190.35 L24.68,187.67 L25.88,178.59 L28.63,168.40 L32.17,158.81 L42.59,133.61 L47.02,119.66 L48.51,112.26 L49.34,104.79 L49.66,96.82 L49.48,86.92 L39.63,91.93 L39.11,106.94 L38.22,113.07 L36.71,119.54 L32.53,131.93 L20.28,161.93 Z M67.27,223.27 L70.66,231.51 L74.28,238.60 L78.34,244.93 L83.07,250.85 L91.87,249.24 L101.96,245.71 L112.37,240.54 L124.34,233.24 L115.08,227.29 L107.06,232.05 L100.20,235.55 L93.68,238.21 L87.20,240.10 L82.28,232.41 L77.83,222.85 L74.36,213.22 L66.15,187.21 L60.58,173.68 L56.98,167.06 L52.83,160.81 L47.95,154.50 L41.45,147.05 L37.13,157.22 L46.37,169.03 L49.62,174.28 L52.61,180.21 L57.36,192.39 L67.27,223.27 Z M142.71,240.02 L150.60,244.15 L157.93,247.26 L165.11,249.49 L172.57,250.99 L178.25,244.10 L183.70,234.91 L188.36,224.26 L192.85,210.96 L181.92,212.36 L178.83,221.17 L175.82,228.26 L172.54,234.49 L168.80,240.10 L160.08,237.38 L150.53,232.92 L141.70,227.77 L118.72,213.11 L105.75,206.31 L99.23,203.72 L91.52,201.43 L83.21,199.65 L73.90,198.20 L77.13,208.77 L91.86,211.88 L97.72,213.81 L103.83,216.43 L114.96,222.52 L142.71,240.02 Z M211.30,204.33 L219.99,202.44 L227.60,200.11 L234.55,197.22 L241.41,193.50 L241.01,183.54 L239.25,173.55 L236.07,162.92 L230.99,149.92 L223.51,158.01 L226.79,166.68 L229.06,174.05 L230.56,180.94 L231.32,187.67 L222.91,191.15 L212.72,193.87 L202.67,195.60 L175.64,199.16 L161.32,202.28 L154.16,204.68 L147.28,207.69 L139.76,211.67 L131.69,216.55 L140.96,222.57 L154.26,215.47 L159.99,213.19 L166.36,211.27 L178.81,208.78 L211.30,204.33 Z M240.90,132.97 L246.36,125.92 L250.96,118.77 L254.37,112.05 L256.95,105.24 L250.28,97.90 L242.50,91.36 L233.24,85.25 L220.95,78.55 L220.43,89.55 L228.55,94.10 L235.02,98.29 L240.60,102.61 L245.53,107.32 L241.34,115.39 L235.27,124.03 L228.65,131.85 L210.21,151.94 L201.29,163.50 L197.37,169.93 L194.02,176.65 L190.82,184.53 L187.77,193.44 L198.74,192.10 L204.37,178.14 L207.30,172.70 L211.01,167.03 L219.09,156.97 L240.90,132.97 Z M217.64,59.19 L217.29,50.31 L216.32,42.41 L214.70,35.07 L212.22,27.67 L202.35,26.33 L192.20,26.33 L181.18,27.61 L167.46,30.37 L174.14,39.14 L183.27,37.41 L190.93,36.45 L197.97,36.17 L204.72,36.59 L206.68,45.47 L207.58,55.97 L207.53,66.17 L206.35,93.41 L206.95,108.06 L208.07,115.53 L209.82,122.82 L212.42,130.92 L215.84,139.77 L223.38,131.69 L218.71,117.32 L217.46,111.27 L216.67,104.65 L216.38,91.55 L217.64,59.19 Z" fill="#4F6B35" fill-rule="evenodd" stroke="none"/><g transform="translate(57.6,56.5) scale(0.55)"><path fill="#C56A4F"
     d="M 102.14453,91.707031 C 75.88387,107.83383 58.388797,136.81742 58.388672,169.92969 c 0,26.24358 10.989932,49.8941 28.623047,66.60547 0.78917,0.0287 1.606685,0.0645 2.388672,0.0645 h 13.798829 c -21.700005,-14.2 -36.100001,-38.99883 -36.000001,-66.79883 0,-4.6 0.401562,-9.10039 1.101562,-13.40039 0.9,-5.3 2.19961,-10.40078 4.09961,-15.30078 4.6,-12.2 12.3,-22.99961 22,-31.59961 3.931025,-5.43652 6.883519,-11.153028 7.744139,-17.792969 z"/><path fill="#CF7B60"
     d="m 100.54883,74.9375 c -34.212592,17.872891 -57.538997,53.68416 -57.539064,94.99219 0,23.98286 7.863534,46.11295 21.154296,63.95508 3.994665,1.1882 8.055807,2.01583 12.144532,2.42382 -15.837028,-17.59471 -25.480469,-40.87153 -25.480469,-66.3789 1.42e-4,-37.40057 20.735424,-70.006176 51.324215,-86.935549 -0.0436,-0.3653 -0.0948,-0.729088 -0.15234,-1.09375 -0.28228,-2.301653 -0.7723,-4.633659 -1.45117,-6.962891 z"/><path fill="#D98C71"
     d="M 94.142578,60.931641 C 54.631684,81.246153 27.630927,122.41046 27.630859,169.92969 c 0,18.28302 3.997424,35.62541 11.166016,51.20117 4.147092,2.98474 8.519875,5.64518 13.048828,7.88281 C 41.438637,211.7536 35.449219,191.53542 35.449219,169.92969 35.449291,125.44985 60.83345,86.84854 97.892578,67.835938 c -1.076559,-2.353764 -2.333276,-4.667189 -3.75,-6.904297 z"/><path fill="#E29D82"
     d="M 84.048828,48.875 C 41.253167,72.264996 12.250034,117.68638 12.25,169.92969 c 0,9.2829 0.916003,18.35034 2.662109,27.11719 3.38757,4.8158 7.343596,9.48164 11.742188,13.81835 C 22.383104,197.99201 20.070312,184.22918 20.070312,169.92969 20.070384,119.96778 48.3014,76.550596 89.669922,54.773438 87.935064,52.678657 86.054753,50.699076 84.048828,48.875 Z"/><path fill="#EBAE93"
     d="m 69.447266,39.585938 c -7.324582,4.540725 -14.237402,9.682721 -20.669922,15.355468 -0.211199,4.300932 -1.072405,9.059358 -3.115235,13.839844 9.407794,-9.713153 20.15685,-18.119803 31.947266,-24.919922 -2.592641,-1.705867 -5.324231,-3.151449 -8.162109,-4.27539 z M 31.289062,86.109375 C 17.717138,96.750193 10.173095,108.56836 6.1992188,120.19922 2.1992187,129.59922 0,140.00039 0,150.90039 c 0,8 1.2003906,15.70039 3.4003906,22.90039 0.4690006,1.46954 0.9773844,2.92923 1.5214844,4.37305 -0.152752,-2.72874 -0.2304688,-5.47744 -0.2304688,-8.24414 2.01e-5,-31.20438 9.8456698,-60.12409 26.5976558,-83.820315 z"/><path fill="#F1BEA4"
     d="m 55.800781,36.900391 c -3.1,0 -6.20039,0.30039 -9.40039,0.90039 0,0 1.159601,3.003328 1.876953,7.705078 3.611981,-2.960556 7.354682,-5.765894 11.21875,-8.408203 -1.22161,-0.130105 -2.453527,-0.197265 -3.695313,-0.197265 z"/><path fill="#A93B28" fill-rule="evenodd"
     d="M253,142.2c0,0.1,0,0.2,0,0.3c0,0.2,0,0.3,0,0.4c0,5.9-4.8,10.7-10.7,10.7h-18.7c-2.8,2.2-5.6,4.7-8.6,7c-0.9,0.7-1.8,1.3-2.7,1.9c-1,0.8-2,1.4-3.1,2c-0.8,0.3-1.6,0.8-2.3,1.1c-2.7,1.2-5.5,2-8.5,2c-0.2,0-0.3,0-0.6,0c-0.9,0-1.9-0.1-2.8-0.2c-8.5-0.9-12.6-6-16.4-13.2c-0.1-0.1-0.2-0.2-0.3-0.3c-2.7-3.2-5.1-4.9-7.1-5.7c-6.6-4.2-14.4-6.8-22.7-6.9l0.6,4.1c20.9,0.7,37.7,17.8,37.7,38.9c0,11.9-5.5,22.6-13.9,29.7c6.6,1,12.2,4.9,15.7,10.2c1.1,1.7,2,3.7,2.7,5.7c0.7,2.1,1.1,4.5,1.1,6.8h-4.8h-5.2h-12.2h-23.7h-30.2c-16.4-7.8-30.1-21.3-37.2-38c-3-6.9-4.9-14.5-5.6-22.3c-0.7-4.2-1-8.6-1-12.9c0-18.6,20.9-57.1,52.1-65.9c0,0,23.8-9.1,26.6-10.2c24.2-10,16.9-23.3,23-32.8c7.3-11.5,17.3-12.4,17.3-12.4L205,25.8l4.7-5.5c3.6,0,6.5,12.7,7,23.4c27.4,12.8,31.4,40.9,31.4,52c0,12-6.3,17.9-15.6,20.3c-4.2,1-10,1.3-15.3,1.3c-6.2,0-11.5-0.4-11.5-0.4c0,0.9,7.3,15.1,7.3,15.1h20.2c1.2-0.1,2.6-0.2,3.8-0.2c1.2,0,2.4,0.1,3.7,0.2h1.6c3,0,5.7,1.3,7.7,3.3c1.3,1.2,2.1,2.4,2.3,3.8C252.8,140.2,253,141.2,253,142.2z M207.1,72c0,4.1,3.3,7.5,7.5,7.5s7.5-3.3,7.5-7.5c0-4.1-3.3-7.5-7.5-7.5S207,67.9,207.1,72z"/></g></g>
<g transform="translate(36,330) scale(1.4235)"><g fill="#4F6B35"><path transform="translate(0.0,0) scale(0.04000,-0.04000)" d="M166 308 206 227 215 204 252 134 264 128 263 111 298 31 322 -8 403 37 404 66 371 101 353 139V138L339 167L333 170V183L293 251C286 261 280 266 272 275V292C266 304 254 321 247 335L275 373L292 394L324 432L370 488L377 548L329 592C328 592 312 587 311 588L305 613L146 751L67 719L71 633L76 442L68 422L70 370L74 253V214L83 201L68 162L62 3L128 -3L168 13L167 96L164 105L161 205L160 314ZM162 402 158 491 156 502 154 508 150 526 158 545V555L160 632L252 541L259 536L279 511L268 497C255 479 231 448 217 431L167 369L160 365Z"/><path transform="translate(16.4,0) scale(0.04000,-0.04000)" d="M279 205 287 172 296 166 288 156 292 128 305 2 322 -7H335L409 17L398 60L383 76L389 84L379 147L354 240V254L306 495L294 504L301 522L269 675L265 685L262 693L263 728L246 736L164 732L154 669L145 627L138 587L149 572L131 551L101 417V399L95 378L92 359L72 236L73 216L62 205L52 142L25 20L60 -2L122 -8L133 59L126 87L135 98L146 169L166 177L175 181L242 197L262 211H263L277 213ZM187 434 182 450 192 455 212 577 227 471 231 453 235 401 255 293 227 286 162 266 163 273 175 338 174 337Z"/><path transform="translate(33.4,0) scale(0.04000,-0.04000)" d="M242 734 196 731C182 731 169 731 154 732C146 732 137 725 131 725L112 733L15 738L12 656L24 644L85 646C88 646 94 647 101 649L106 654L128 651L134 610L130 546L136 499L131 295L126 154L135 144L120 81V4L173 -4L201 1L230 17L222 88V276L210 295L211 296L220 356L219 433V450C219 457 218 466 218 474C217 480 217 505 217 514L219 588L215 610L221 652H252L282 650L292 647H337L340 694L334 736Z"/><path transform="translate(47.3,0) scale(0.04000,-0.04000)" d="M279 205 287 172 296 166 288 156 292 128 305 2 322 -7H335L409 17L398 60L383 76L389 84L379 147L354 240V254L306 495L294 504L301 522L269 675L265 685L262 693L263 728L246 736L164 732L154 669L145 627L138 587L149 572L131 551L101 417V399L95 378L92 359L72 236L73 216L62 205L52 142L25 20L60 -2L122 -8L133 59L126 87L135 98L146 169L166 177L175 181L242 197L262 211H263L277 213ZM187 434 182 450 192 455 212 577 227 471 231 453 235 401 255 293 227 286 162 266 163 273 175 338 174 337Z"/><path transform="translate(64.3,0) scale(0.04000,-0.04000)" d="M242 734 196 731C182 731 169 731 154 732C146 732 137 725 131 725L112 733L15 738L12 656L24 644L85 646C88 646 94 647 101 649L106 654L128 651L134 610L130 546L136 499L131 295L126 154L135 144L120 81V4L173 -4L201 1L230 17L222 88V276L210 295L211 296L220 356L219 433V450C219 457 218 466 218 474C217 480 217 505 217 514L219 588L215 610L221 652H252L282 650L292 647H337L340 694L334 736Z"/><path transform="translate(78.2,0) scale(0.04000,-0.04000)" d="M207 737 198 736H161L159 729L153 699L149 693L95 558L100 547L82 534L28 403L20 398L22 335L46 284L82 199L112 137H123L120 120L155 33L156 0L247 -1L249 10L261 42L315 170L338 218L339 234L347 244L396 343L399 398L365 472L338 532H328L323 559L272 684L252 739ZM209 127 165 242 145 283 125 297 135 309 126 338 113 371 112 383 145 469 138 485 152 489 207 634 213 615 236 554 254 543 245 531 284 430 296 396 304 371 255 251 256 233H257L245 221L213 116Z"/><path transform="translate(94.8,0) scale(0.04000,-0.04000)" d="M143 178 145 167 117 154C111 144 106 135 100 125C91 111 84 100 74 86L55 69L40 32L122 -19L149 14L160 46L159 42C162 48 165 56 169 63L209 117L263 183L299 242L297 320L270 340L177 427L161 437L142 464L123 487L153 527L155 534L165 548L222 615L231 633L257 659L284 699L225 746L195 749L171 709C170 706 174 701 172 697L152 684L126 649L128 638L77 579L28 509L29 446L77 399L154 328L174 319L208 278Z"/><path transform="translate(107.4,0) scale(0.04000,-0.04000)" d="M59 730 70 659 68 579 73 453 82 399 76 183V177L74 161L86 147L69 107L70 103L67 102L66 -2L119 -3L172 -1L173 50L169 69L168 80L167 129L163 177V341L203 258L202 256L236 201L231 188L284 69L313 -5L338 -6L410 34L381 99L367 102L372 116L338 173L303 250L244 385L239 393L311 530L308 533L311 538L372 639L401 692L370 716L309 740L278 667L282 642L254 614L237 571L197 475L180 448L165 409L162 401V431L160 479L170 727L132 740Z"/><path transform="translate(124.2,0) scale(0.04000,-0.04000)" d="M166 308 206 227 215 204 252 134 264 128 263 111 298 31 322 -8 403 37 404 66 371 101 353 139V138L339 167L333 170V183L293 251C286 261 280 266 272 275V292C266 304 254 321 247 335L275 373L292 394L324 432L370 488L377 548L329 592C328 592 312 587 311 588L305 613L146 751L67 719L71 633L76 442L68 422L70 370L74 253V214L83 201L68 162L62 3L128 -3L168 13L167 96L164 105L161 205L160 314ZM162 402 158 491 156 502 154 508 150 526 158 545V555L160 632L252 541L259 536L279 511L268 497C255 479 231 448 217 431L167 369L160 365Z"/></g></g>
</svg>
