<svg xmlns="http://www.w3.org/2000/svg" viewBox="0 -45 200 55">
<!-- "Ratatoskr" set in Norse Bold by Joel Carrouche, converted to outlines.
     The font license permits use in logos/artwork; the font FILE itself must not
     be committed to this repository. Regenerate via the regen-wordmark flag of
     the :tools:logo Gradle module (see GenerateLogo.kt). -->
<path fill-rule="evenodd" d="M9.45,-17.52 L11.72,-12.92 L12.23,-11.61 L14.34,-7.63 L15.03,-7.29 L14.97,-6.32 L16.97,-1.76 L18.32,0.44 L22.95,-2.11 L22.99,-3.76 L21.13,-5.76 L20.10,-7.92 L20.10,-7.85 L19.30,-9.52 L18.95,-9.67 L18.95,-10.41 L16.68,-14.30 C16.28,-14.86 15.95,-15.14 15.48,-15.66 L15.48,-16.63 C15.14,-17.30 14.46,-18.28 14.05,-19.08 L15.66,-21.24 L16.63,-22.44 L18.44,-24.60 L21.06,-27.78 L21.46,-31.20 L18.73,-33.71 C18.68,-33.71 17.77,-33.42 17.70,-33.47 L17.37,-34.89 L8.32,-42.77 L3.83,-40.94 L4.05,-36.03 L4.34,-25.17 L3.87,-24.02 L3.98,-21.06 L4.20,-14.41 L4.20,-12.19 L4.71,-11.45 L3.87,-9.23 L3.54,-0.18 L7.29,0.18 L9.56,-0.73 L9.52,-5.47 L9.34,-5.98 L9.16,-11.68 L9.12,-17.88 L9.45,-17.52 Z M9.23,-22.88 L8.98,-27.95 L8.87,-28.58 L8.76,-28.91 L8.54,-29.96 L8.98,-31.02 L8.98,-31.60 L9.12,-35.98 L14.34,-30.80 L14.74,-30.51 L15.88,-29.09 L15.26,-28.29 C14.52,-27.26 13.14,-25.51 12.36,-24.53 L9.52,-21.02 L9.12,-20.77 L9.23,-22.88 Z M39.16,-11.68 L39.63,-9.79 L40.14,-9.45 L39.67,-8.87 L39.92,-7.29 L40.65,-0.11 L41.61,0.40 L42.37,0.40 L46.57,-0.98 L45.95,-3.42 L45.08,-4.34 L45.43,-4.78 L44.86,-8.36 L43.43,-13.65 L43.43,-14.46 L40.70,-28.18 L40.03,-28.69 L40.43,-29.71 L38.61,-38.43 L38.36,-39.01 L38.21,-39.45 L38.25,-41.45 L37.30,-41.90 L32.63,-41.68 L32.05,-38.10 L31.54,-35.69 L31.14,-33.42 L31.76,-32.56 L30.73,-31.38 L29.04,-23.75 L29.04,-22.71 L28.69,-21.53 L28.53,-20.44 L27.38,-13.43 L27.44,-12.30 L26.82,-11.68 L26.24,-8.09 L24.71,-1.13 L26.71,0.11 L30.22,0.44 L30.85,-3.36 L30.47,-4.96 L30.98,-5.58 L31.60,-9.63 L32.74,-10.07 L33.25,-10.30 L37.07,-11.21 L38.21,-12.01 L38.25,-12.01 L39.05,-12.12 L39.16,-11.68 Z M33.94,-24.71 L33.65,-25.62 L34.23,-25.91 L35.36,-32.85 L36.21,-26.82 L36.43,-25.80 L36.67,-22.84 L37.81,-16.68 L36.21,-16.28 L32.51,-15.14 L32.56,-15.54 L33.25,-19.24 L33.18,-19.19 L33.94,-24.71 Z M61.27,-41.79 L58.64,-41.61 C57.84,-41.61 57.11,-41.61 56.24,-41.68 C55.80,-41.68 55.29,-41.28 54.93,-41.28 L53.86,-41.72 L48.33,-42.01 L48.17,-37.34 L48.84,-36.67 L52.33,-36.78 C52.48,-36.78 52.84,-36.83 53.24,-36.94 L53.51,-37.23 L54.78,-37.07 L55.11,-34.74 L54.89,-31.09 L55.22,-28.40 L54.93,-16.79 L54.66,-8.76 L55.18,-8.21 L54.31,-4.60 L54.31,-0.22 L57.33,0.22 L58.93,-0.07 L60.58,-0.98 L60.11,-5.00 L60.11,-15.72 L59.45,-16.79 L59.49,-16.86 L60.00,-20.26 L59.96,-24.64 L59.96,-25.62 C59.96,-26.02 59.89,-26.53 59.89,-26.98 C59.85,-27.33 59.85,-28.75 59.85,-29.27 L59.96,-33.47 L59.71,-34.74 L60.07,-37.12 L61.82,-37.12 L63.54,-37.01 L64.12,-36.83 L66.67,-36.83 L66.83,-39.52 L66.50,-41.90 L61.27,-41.79 Z M83.17,-11.68 L83.64,-9.79 L84.15,-9.45 L83.68,-8.87 L83.93,-7.29 L84.66,-0.11 L85.62,0.40 L86.37,0.40 L90.58,-0.98 L89.95,-3.42 L89.09,-4.34 L89.44,-4.78 L88.86,-8.36 L87.44,-13.65 L87.44,-14.46 L84.71,-28.18 L84.04,-28.69 L84.44,-29.71 L82.62,-38.43 L82.37,-39.01 L82.22,-39.45 L82.26,-41.45 L81.30,-41.90 L76.63,-41.68 L76.06,-38.10 L75.54,-35.69 L75.14,-33.42 L75.77,-32.56 L74.74,-31.38 L73.05,-23.75 L73.05,-22.71 L72.70,-21.53 L72.54,-20.44 L71.38,-13.43 L71.45,-12.30 L70.83,-11.68 L70.25,-8.09 L68.72,-1.13 L70.72,0.11 L74.23,0.44 L74.85,-3.36 L74.48,-4.96 L74.99,-5.58 L75.61,-9.63 L76.74,-10.07 L77.26,-10.30 L81.08,-11.21 L82.22,-12.01 L82.26,-12.01 L83.06,-12.12 L83.17,-11.68 Z M77.95,-24.71 L77.66,-25.62 L78.23,-25.91 L79.37,-32.85 L80.21,-26.82 L80.44,-25.80 L80.68,-22.84 L81.81,-16.68 L80.21,-16.28 L76.52,-15.14 L76.57,-15.54 L77.26,-19.24 L77.19,-19.19 L77.95,-24.71 Z M105.28,-41.79 L102.65,-41.61 C101.85,-41.61 101.12,-41.61 100.25,-41.68 C99.81,-41.68 99.29,-41.28 98.94,-41.28 L97.87,-41.72 L92.33,-42.01 L92.18,-37.34 L92.85,-36.67 L96.34,-36.78 C96.49,-36.78 96.85,-36.83 97.25,-36.94 L97.52,-37.23 L98.78,-37.07 L99.12,-34.74 L98.89,-31.09 L99.23,-28.40 L98.94,-16.79 L98.67,-8.76 L99.18,-8.21 L98.32,-4.60 L98.32,-0.22 L101.34,0.22 L102.94,-0.07 L104.59,-0.98 L104.12,-5.00 L104.12,-15.72 L103.45,-16.79 L103.50,-16.86 L104.01,-20.26 L103.96,-24.64 L103.96,-25.62 C103.96,-26.02 103.90,-26.53 103.90,-26.98 C103.85,-27.33 103.85,-28.75 103.85,-29.27 L103.96,-33.47 L103.72,-34.74 L104.08,-37.12 L105.83,-37.12 L107.55,-37.01 L108.12,-36.83 L110.68,-36.83 L110.84,-39.52 L110.50,-41.90 L105.28,-41.79 Z M123.09,-41.96 L122.58,-41.90 L120.46,-41.90 L120.35,-41.50 L120.02,-39.79 L119.77,-39.45 L116.70,-31.76 L116.99,-31.13 L115.97,-30.40 L112.90,-22.95 L112.44,-22.66 L112.55,-19.08 L113.93,-16.17 L115.97,-11.32 L117.68,-7.81 L118.31,-7.81 L118.13,-6.83 L120.13,-1.87 L120.17,0.00 L125.36,0.07 L125.47,-0.58 L126.16,-2.40 L129.23,-9.67 L130.54,-12.41 L130.60,-13.32 L131.05,-13.90 L133.85,-19.53 L134.01,-22.66 L132.07,-26.86 L130.54,-30.29 L129.98,-30.29 L129.69,-31.82 L126.78,-38.94 L125.64,-42.08 L123.09,-41.96 Z M123.20,-7.23 L120.69,-13.79 L119.55,-16.10 L118.42,-16.90 L119.00,-17.59 L118.48,-19.24 L117.73,-21.13 L117.68,-21.79 L119.55,-26.71 L119.15,-27.62 L119.95,-27.84 L123.09,-36.09 L123.42,-35.00 L124.73,-31.53 L125.76,-30.91 L125.24,-30.22 L127.47,-24.48 L128.16,-22.55 L128.60,-21.13 L125.82,-14.30 L125.87,-13.25 L125.93,-13.25 L125.24,-12.59 L123.42,-6.60 L123.20,-7.23 Z M143.12,-10.14 L143.23,-9.52 L141.66,-8.76 C141.30,-8.21 141.01,-7.69 140.68,-7.12 C140.17,-6.32 139.77,-5.69 139.19,-4.89 L138.12,-3.94 L137.25,-1.82 L141.92,1.09 L143.46,-0.80 L144.10,-2.62 L144.04,-2.40 C144.21,-2.74 144.37,-3.18 144.61,-3.58 L146.88,-6.67 L149.95,-10.41 L152.00,-13.79 L151.89,-18.21 L150.35,-19.35 L145.06,-24.31 L144.15,-24.89 L143.08,-26.42 L141.99,-27.73 L143.70,-30.00 L143.81,-30.40 L144.37,-31.20 L147.62,-35.00 L148.13,-36.03 L149.62,-37.52 L151.15,-39.79 L147.79,-42.48 L146.08,-42.63 L144.72,-40.36 C144.66,-40.19 144.88,-39.92 144.77,-39.67 L143.64,-38.94 L142.17,-36.94 L142.28,-36.32 L139.37,-32.96 L136.59,-28.98 L136.63,-25.40 L139.37,-22.71 L143.75,-18.68 L144.88,-18.17 L146.82,-15.83 L143.12,-10.14 Z M156.28,-41.56 L156.90,-37.52 L156.79,-32.96 L157.08,-25.80 L157.59,-22.71 L157.25,-10.41 L157.25,-10.07 L157.12,-9.16 L157.81,-8.36 L156.85,-6.09 L156.90,-5.87 L156.74,-5.80 L156.68,0.11 L159.70,0.18 L162.70,0.07 L162.77,-2.85 L162.55,-3.94 L162.48,-4.56 L162.44,-7.34 L162.19,-10.07 L162.19,-19.41 L164.48,-14.68 L164.42,-14.57 L166.35,-11.45 L166.06,-10.70 L169.09,-3.94 L170.73,0.29 L172.15,0.33 L176.27,-1.93 L174.60,-5.63 L173.82,-5.80 L174.09,-6.60 L172.15,-9.85 L170.18,-14.23 L166.82,-21.93 L166.53,-22.37 L170.62,-30.18 L170.44,-30.33 L170.62,-30.62 L174.09,-36.38 L175.76,-39.41 L173.98,-40.76 L170.51,-42.12 L168.75,-37.98 L168.97,-36.56 L167.37,-34.96 L166.42,-32.51 L164.13,-27.04 L163.17,-25.51 L162.30,-23.28 L162.15,-22.84 L162.15,-24.53 L162.04,-27.26 L162.59,-41.39 L160.43,-42.12 L156.28,-41.56 Z M186.17,-17.52 L188.43,-12.92 L188.95,-11.61 L191.06,-7.63 L191.75,-7.29 L191.68,-6.32 L193.68,-1.76 L195.04,0.44 L199.67,-2.11 L199.71,-3.76 L197.84,-5.76 L196.82,-7.92 L196.82,-7.85 L196.02,-9.52 L195.66,-9.67 L195.66,-10.41 L193.39,-14.30 C192.99,-14.86 192.66,-15.14 192.19,-15.66 L192.19,-16.63 C191.86,-17.30 191.17,-18.28 190.77,-19.08 L192.37,-21.24 L193.35,-22.44 L195.15,-24.60 L197.78,-27.78 L198.18,-31.20 L195.44,-33.71 C195.40,-33.71 194.48,-33.42 194.42,-33.47 L194.08,-34.89 L185.03,-42.77 L180.54,-40.94 L180.76,-36.03 L181.05,-25.17 L180.58,-24.02 L180.70,-21.06 L180.92,-14.41 L180.92,-12.19 L181.43,-11.45 L180.58,-9.23 L180.25,-0.18 L184.01,0.18 L186.28,-0.73 L186.23,-5.47 L186.06,-5.98 L185.88,-11.68 L185.83,-17.88 L186.17,-17.52 Z M185.94,-22.88 L185.70,-27.95 L185.59,-28.58 L185.48,-28.91 L185.25,-29.96 L185.70,-31.02 L185.70,-31.60 L185.83,-35.98 L191.06,-30.80 L191.46,-30.51 L192.59,-29.09 L191.97,-28.29 C191.24,-27.26 189.86,-25.51 189.08,-24.53 L186.23,-21.02 L185.83,-20.77 L185.94,-22.88 Z"/>
</svg>
