<?xml version="1.0" standalone="no"?>
<!DOCTYPE svg PUBLIC "-//W3C//DTD SVG 20010904//EN"
 "http://www.w3.org/TR/2001/REC-SVG-20010904/DTD/svg10.dtd">
<svg version="1.0" xmlns="http://www.w3.org/2000/svg"
 width="1280.000000pt" height="1280.000000pt" viewBox="0 0 1280.000000 1280.000000"
 preserveAspectRatio="xMidYMid meet">
<metadata>
Created by potrace 1.15, written by Peter Selinger 2001-2017
</metadata>
<g transform="translate(0.000000,1280.000000) scale(0.100000,-0.100000)"
fill="#000000" stroke="none">
<path d="M190 12790 l-175 -5 -8 -240 c-11 -332 -1 -1060 17 -1275 23 -268 55
-526 77 -619 29 -126 61 -167 108 -141 26 14 35 31 55 107 8 34 29 87 46 117
51 90 53 104 26 266 -39 231 -47 426 -44 990 l3 515 515 3 c563 3 760 -5 989
-43 79 -14 156 -22 170 -19 14 4 58 23 96 44 39 21 97 43 129 50 60 12 106 45
106 74 0 52 -97 85 -339 116 -498 64 -1038 83 -1771 60z"/>
<path d="M11480 12790 c-390 -20 -855 -80 -931 -121 -27 -14 -49 -39 -49 -55
0 -29 46 -62 106 -74 32 -7 91 -29 129 -50 39 -21 82 -40 96 -44 14 -3 91 5
170 19 229 38 426 46 989 43 l515 -3 3 -515 c3 -564 -5 -759 -44 -990 -27
-162 -25 -176 26 -267 17 -30 39 -87 49 -126 26 -107 82 -138 124 -68 39 67
86 381 119 801 16 205 17 1425 1 1441 -13 13 -1068 21 -1303 9z"/>
<path d="M4606 12680 c-392 -45 -734 -224 -991 -517 -75 -85 -176 -228 -212
-298 -28 -54 -75 -280 -71 -341 l3 -49 111 -3 110 -3 39 98 c92 231 215 439
343 574 229 244 494 335 893 309 128 -9 466 -52 512 -66 17 -5 118 71 159 120
15 18 25 56 14 56 -2 0 -66 16 -142 36 -287 73 -579 105 -768 84z"/>
<path d="M7915 12683 c-142 -11 -335 -47 -517 -95 -151 -39 -152 -45 -21 -157
41 -35 68 -51 80 -47 46 14 384 57 512 66 400 26 667 -67 897 -313 125 -134
248 -341 339 -570 l39 -98 110 3 111 3 3 49 c4 61 -43 287 -71 341 -36 70
-137 213 -212 298 -320 365 -794 560 -1270 520z"/>
<path d="M6080 12655 c-176 -28 -358 -98 -471 -181 -70 -51 -161 -152 -194
-217 -39 -75 -33 -79 105 -74 134 5 168 20 285 125 117 105 168 133 256 140
68 5 128 -5 207 -35 36 -13 41 -19 36 -37 -7 -23 -39 -74 -79 -123 -25 -30
-26 -37 -28 -165 -1 -73 2 -139 6 -145 11 -17 44 0 131 67 l66 49 66 -49 c87
-67 120 -84 131 -67 4 6 7 72 6 145 -2 128 -3 135 -28 165 -40 49 -72 100 -79
123 -5 18 0 24 36 37 79 30 139 40 207 35 88 -7 139 -35 256 -140 117 -105
151 -120 285 -125 62 -3 111 0 120 6 35 24 -95 202 -209 285 -116 85 -297 154
-481 181 -122 19 -511 19 -630 0z"/>
<path d="M2795 12584 c-362 -36 -606 -98 -825 -209 -101 -52 -110 -59 -110
-85 0 -32 60 -88 122 -114 94 -40 174 -31 429 45 355 106 724 126 989 53 52
-15 104 -28 115 -31 30 -7 150 114 182 183 13 29 22 58 19 63 -9 13 -167 49
-320 72 -125 19 -496 33 -601 23z"/>
<path d="M9595 12584 c-213 -22 -487 -72 -508 -93 -6 -6 1 -31 17 -66 32 -70
150 -189 181 -182 11 3 63 16 115 31 265 73 634 53 989 -53 255 -76 335 -85
429 -45 62 26 122 82 122 114 0 26 -9 33 -107 83 -275 140 -577 205 -978 212
-121 1 -238 1 -260 -1z"/>
<path d="M1076 12390 c-99 -16 -235 -56 -373 -110 l-132 -51 -52 -132 c-28
-73 -65 -184 -82 -247 -27 -105 -30 -130 -31 -280 -1 -174 6 -225 52 -360 58
-176 152 -323 301 -470 90 -90 273 -230 300 -230 8 0 133 174 155 217 l16 31
-83 56 c-233 156 -375 330 -438 536 -18 58 -23 99 -23 185 -1 121 26 255 50
255 7 0 32 -23 56 -51 24 -29 58 -68 76 -88 l32 -36 59 65 c73 80 81 88 161
161 l65 59 -36 32 c-20 18 -59 52 -88 76 -28 24 -51 49 -51 56 0 8 25 20 63
29 348 88 677 -73 921 -450 l47 -73 37 19 c20 11 69 42 107 71 39 28 78 56 88
61 9 5 17 14 17 19 0 23 -131 201 -207 281 -173 181 -352 288 -588 349 -92 24
-322 35 -419 20z"/>
<path d="M11430 12394 c-119 -21 -151 -29 -218 -51 -182 -60 -349 -169 -495
-322 -76 -80 -207 -258 -207 -281 0 -5 8 -14 18 -19 9 -5 49 -33 87 -61 39
-29 86 -60 107 -71 l36 -19 66 100 c77 114 203 247 294 309 142 96 264 135
422 135 116 0 250 -26 250 -50 0 -7 -23 -32 -51 -56 -29 -24 -68 -58 -88 -76
l-36 -32 65 -59 c80 -73 88 -81 161 -161 l59 -65 32 36 c18 20 52 59 76 88 24
28 49 51 57 51 22 0 50 -141 49 -255 0 -120 -20 -200 -73 -310 -75 -152 -203
-287 -388 -411 l-83 -56 16 -31 c22 -43 147 -217 155 -217 27 0 210 140 300
230 149 147 243 294 301 470 45 133 53 187 52 355 0 184 -17 270 -89 465 -83
220 -59 192 -209 251 -207 81 -334 110 -501 114 -77 2 -151 2 -165 -1z"/>
<path d="M6035 12356 c-16 -8 -61 -35 -99 -60 l-69 -47 -1 -157 c-1 -146 -3
-162 -28 -224 -56 -140 -146 -240 -270 -299 -64 -31 -66 -34 -73 -76 -4 -27
-19 -59 -41 -86 -66 -82 -94 -120 -94 -129 0 -26 182 23 293 78 349 175 519
513 452 900 -19 105 -28 118 -70 100z"/>
<path d="M6721 12357 c-5 -7 -17 -53 -26 -101 -67 -388 102 -725 452 -900 111
-55 293 -104 293 -78 0 9 -28 47 -94 129 -22 27 -37 59 -41 86 -6 41 -9 44
-73 75 -124 59 -214 160 -270 300 -25 62 -27 78 -28 224 l-1 157 -69 47 c-92
62 -129 78 -143 61z"/>
<path d="M5655 12154 c-308 -33 -575 -92 -764 -169 -95 -39 -216 -106 -264
-146 l-32 -27 34 -64 c93 -172 190 -271 320 -322 43 -17 44 -17 69 6 14 13 44
49 68 81 41 56 43 60 30 85 -8 15 -31 43 -51 62 -36 34 -65 79 -65 99 0 6 27
24 60 41 189 95 432 129 644 89 28 -5 54 -5 58 -1 5 5 22 62 38 128 17 65 33
127 36 137 6 20 3 21 -181 1z"/>
<path d="M6960 12168 c1 -17 72 -274 78 -280 5 -5 30 -4 58 1 212 40 455 6
644 -89 33 -17 60 -35 60 -41 0 -20 -29 -65 -65 -99 -20 -19 -43 -47 -51 -62
-13 -25 -11 -29 30 -85 24 -32 54 -68 68 -81 25 -23 26 -23 69 -6 97 38 177
104 243 198 61 88 108 176 102 192 -3 8 -37 35 -77 60 -201 130 -480 216 -859
263 -174 21 -300 34 -300 29z"/>
<path d="M2515 12143 c-41 -9 -150 -46 -158 -53 -5 -4 -1 -42 7 -83 24 -115
21 -211 -8 -274 -105 -226 -479 -291 -725 -126 -35 24 -69 43 -75 43 -16 0
-91 -50 -140 -93 l-39 -34 24 -32 c60 -81 226 -173 394 -218 90 -24 117 -27
280 -27 144 -1 193 3 244 17 110 31 191 76 257 142 56 56 63 66 78 132 38 170
45 412 15 556 l-12 57 -61 -1 c-33 -1 -70 -3 -81 -6z"/>
<path d="M4122 12139 c-46 -9 -111 -68 -112 -99 0 -9 30 -61 66 -115 82 -123
165 -293 196 -400 30 -107 32 -309 5 -400 -47 -152 -248 -353 -401 -401 -36
-11 -110 -17 -256 -21 l-205 -5 -55 -52 c-30 -29 -70 -61 -88 -71 -18 -11 -31
-24 -29 -29 6 -19 123 -75 201 -97 112 -31 380 -39 476 -15 173 44 404 194
507 330 99 130 183 354 199 528 12 133 -26 288 -114 463 -137 275 -273 409
-390 384z"/>
<path d="M8611 12137 c-99 -25 -213 -160 -323 -382 -89 -177 -126 -328 -114
-463 16 -174 100 -398 199 -528 103 -136 334 -286 507 -330 96 -24 364 -16
476 15 78 22 195 78 201 97 2 5 -11 18 -29 29 -18 10 -58 42 -88 71 l-55 52
-205 5 c-232 6 -271 14 -369 77 -75 49 -183 156 -233 230 -57 88 -73 154 -73
305 1 104 5 146 23 210 31 107 114 277 196 400 36 54 66 106 66 115 -1 16 -21
43 -57 73 -29 25 -81 35 -122 24z"/>
<path d="M10131 12094 c-30 -145 -23 -386 15 -557 15 -66 22 -76 78 -132 66
-66 147 -111 257 -142 51 -14 100 -18 244 -17 163 0 190 3 280 27 168 45 334
137 394 218 l24 32 -39 34 c-49 43 -124 93 -140 93 -6 0 -40 -19 -75 -43 -246
-165 -620 -100 -725 126 -29 63 -32 159 -8 274 8 41 12 79 7 83 -21 20 -147
52 -219 57 l-81 6 -12 -59z"/>
<path d="M1385 12003 c-71 -47 -107 -74 -249 -193 -86 -71 -238 -248 -328
-379 -56 -83 -68 -113 -48 -126 5 -3 30 -37 54 -74 43 -68 91 -113 132 -125
29 -9 87 56 205 230 50 75 104 150 120 169 17 19 97 79 179 135 83 56 173 122
200 147 56 50 57 62 14 120 -25 33 -177 143 -197 143 -7 0 -44 -21 -82 -47z"/>
<path d="M11238 11993 c-78 -54 -120 -99 -132 -139 -9 -30 55 -85 244 -214 82
-56 162 -116 179 -135 16 -19 70 -94 120 -169 118 -174 176 -239 205 -230 41
12 89 57 132 125 24 37 49 71 54 74 20 13 8 43 -48 126 -110 161 -244 310
-380 421 -141 116 -259 198 -282 197 -8 0 -50 -25 -92 -56z"/>
<path d="M5304 11762 l-121 -16 -7 -68 c-21 -226 -175 -361 -427 -375 l-96 -6
5 -106 c2 -58 8 -113 13 -122 7 -13 19 -14 86 -7 124 15 230 45 342 99 134 65
234 161 298 284 41 80 84 209 97 293 l6 42 -37 -1 c-21 -1 -93 -9 -159 -17z"/>
<path d="M7306 11738 c13 -84 56 -213 97 -293 64 -123 164 -219 298 -284 112
-54 218 -84 342 -99 67 -7 79 -6 86 7 5 9 11 64 13 122 l5 106 -96 6 c-252 14
-406 149 -427 375 l-6 68 -142 17 c-191 23 -178 25 -170 -25z"/>
<path d="M1233 11372 c-46 -54 -83 -111 -83 -128 0 -6 19 -40 43 -75 165 -246
100 -620 -126 -725 -63 -29 -159 -32 -274 -8 -41 8 -79 12 -83 7 -20 -21 -52
-147 -57 -219 l-6 -81 59 -12 c145 -30 386 -23 557 15 66 15 76 22 133 78 66
66 110 146 140 256 15 52 19 101 18 245 0 162 -3 190 -27 280 -37 138 -111
286 -181 358 -30 31 -58 57 -63 57 -4 0 -27 -22 -50 -48z"/>
<path d="M3455 11410 c-232 -16 -459 -48 -649 -92 l-89 -20 6 -82 c6 -97 21
-141 89 -263 58 -105 51 -103 178 -56 115 43 131 66 90 128 -11 17 -20 40 -20
53 0 28 19 36 161 68 253 57 609 47 895 -25 l72 -18 23 81 c23 79 31 187 15
203 -21 22 -555 38 -771 23z"/>
<path d="M8740 11409 c-169 -12 -167 -11 -175 -59 -7 -43 -3 -69 27 -176 l20
-71 72 18 c286 72 642 82 895 25 142 -32 161 -40 161 -68 0 -13 -9 -36 -20
-53 -41 -62 -25 -85 90 -128 127 -47 120 -50 180 60 61 108 90 202 90 284 l0
57 -87 20 c-366 85 -840 119 -1253 91z"/>
<path d="M11454 11363 c-70 -72 -144 -220 -181 -358 -24 -90 -27 -118 -27
-280 -1 -144 3 -193 18 -245 30 -110 74 -190 140 -256 57 -56 67 -63 133 -78
171 -38 412 -45 557 -15 l59 12 -6 81 c-5 72 -37 198 -57 219 -4 5 -42 1 -83
-7 -115 -24 -211 -21 -274 8 -226 106 -291 478 -126 725 24 35 43 69 43 75 0
26 -113 176 -133 176 -5 0 -33 -26 -63 -57z"/>
<path d="M2360 11189 c-41 -22 -96 -42 -122 -45 -27 -4 -48 -10 -48 -13 0 -4
29 -61 65 -127 81 -149 109 -220 130 -323 17 -84 18 -251 2 -268 -17 -16 -184
-15 -268 2 -103 21 -174 49 -323 130 -66 36 -123 65 -127 65 -3 0 -9 -22 -13
-48 -3 -26 -24 -83 -46 -127 l-41 -80 32 -27 c82 -69 255 -136 422 -163 175
-28 547 -11 584 28 21 22 43 196 43 346 0 218 -33 389 -104 536 -35 73 -91
156 -104 154 -4 -1 -41 -19 -82 -40z"/>
<path d="M10319 11188 c-109 -149 -169 -377 -169 -648 0 -151 22 -326 43 -347
38 -39 409 -56 584 -28 167 27 340 94 422 163 l32 27 -41 80 c-22 44 -43 101
-46 127 -4 26 -10 48 -15 48 -4 0 -61 -29 -126 -65 -146 -80 -217 -109 -322
-130 -84 -17 -251 -18 -268 -2 -4 5 -8 66 -7 135 0 100 5 142 22 197 22 73 83
204 146 313 20 35 36 67 36 72 0 4 -22 10 -48 14 -26 3 -83 24 -127 46 -44 22
-81 40 -82 40 -2 0 -17 -19 -34 -42z"/>
<path d="M3211 11044 c-14 -31 -46 -80 -73 -109 -95 -104 -211 -156 -355 -158
l-83 -2 6 -35 c9 -55 45 -220 49 -220 1 0 40 7 86 16 386 72 576 205 655 457
l18 58 -22 22 c-20 20 -34 22 -140 25 l-117 3 -24 -57z"/>
<path d="M9335 11090 c-41 -16 -49 -36 -35 -88 68 -249 272 -393 659 -466 46
-9 85 -16 86 -16 4 0 40 165 49 220 l6 35 -83 2 c-144 2 -260 54 -355 158 -27
29 -59 78 -73 109 l-24 56 -105 -1 c-58 0 -114 -4 -125 -9z"/>
<path d="M420 10818 c-98 -201 -158 -417 -192 -688 -19 -156 -16 -545 5 -695
21 -140 63 -335 76 -348 10 -10 72 14 122 49 19 13 57 49 83 80 l49 56 -26 86
c-43 146 -51 207 -50 402 0 237 24 402 92 629 63 212 75 272 67 340 -13 105
-81 211 -137 211 -27 0 -33 -8 -89 -122z"/>
<path d="M12230 10903 c-67 -76 -92 -175 -71 -285 7 -35 35 -138 62 -229 106
-357 125 -719 52 -989 -14 -52 -27 -104 -30 -115 -7 -31 112 -149 182 -181 35
-16 60 -23 66 -17 14 14 56 211 76 353 21 156 24 536 5 690 -34 271 -94 487
-192 688 -56 114 -62 122 -89 122 -21 0 -38 -10 -61 -37z"/>
<path d="M2001 10783 c0 -10 12 -88 27 -173 l27 -155 31 -3 c32 -3 222 23 231
31 8 9 34 199 31 231 l-3 31 -155 27 c-188 32 -190 33 -189 11z"/>
<path d="M10605 10771 l-150 -26 -3 -31 c-3 -32 23 -222 31 -231 9 -8 199 -34
231 -31 l31 3 27 155 c15 85 27 163 27 173 1 22 -6 21 -194 -12z"/>
<path d="M2023 10017 c-2 -144 -54 -260 -158 -355 -29 -27 -78 -59 -109 -73
l-57 -24 3 -117 c3 -106 5 -120 25 -140 22 -22 22 -22 80 -4 261 81 396 286
467 708 l7 36 -93 20 c-51 12 -109 23 -128 26 l-35 6 -2 -83z"/>
<path d="M10730 10093 c-14 -2 -67 -13 -118 -24 l-93 -21 7 -36 c71 -423 206
-627 467 -708 58 -18 58 -18 80 4 20 20 22 34 25 140 l3 117 -57 24 c-31 14
-80 46 -109 73 -104 95 -156 211 -158 355 -1 49 -6 82 -12 82 -5 -1 -21 -4
-35 -6z"/>
<path d="M1480 9988 c-29 -130 -57 -306 -77 -488 -27 -257 -20 -897 11 -928
15 -14 126 -6 202 17 l81 23 -18 72 c-71 281 -82 645 -25 893 13 59 29 120 35
136 13 33 43 36 86 7 44 -29 72 -26 94 12 29 46 76 197 65 207 -5 5 -52 32
-104 60 -108 57 -188 81 -271 81 l-57 0 -22 -92z"/>
<path d="M11120 10064 c-49 -13 -231 -102 -254 -125 -11 -10 36 -161 65 -207
22 -38 50 -41 94 -12 43 29 73 26 86 -7 30 -76 61 -254 67 -385 12 -232 -8
-449 -57 -644 l-18 -72 81 -23 c76 -23 187 -31 202 -17 31 31 38 671 11 928
-20 182 -48 358 -77 488 l-22 92 -61 -1 c-34 0 -87 -7 -117 -15z"/>
<path d="M2218 9517 c-15 -23 -47 -62 -72 -87 l-46 -44 0 -156 c-1 -274 -21
-352 -125 -481 -60 -74 -165 -164 -231 -198 -107 -56 -317 -65 -474 -21 -102
29 -274 113 -395 194 -54 36 -106 66 -115 66 -17 0 -62 -39 -86 -75 -21 -32
-20 -94 2 -140 68 -144 439 -358 688 -396 190 -30 481 54 666 191 141 104 291
333 336 510 24 96 16 364 -15 476 -21 77 -78 195 -97 201 -5 2 -21 -16 -36
-40z"/>
<path d="M10510 9508 c-36 -64 -67 -159 -80 -248 -15 -104 -12 -317 5 -385 45
-173 196 -402 335 -505 136 -101 347 -180 523 -196 81 -7 184 7 282 38 101 32
315 144 405 212 111 83 153 141 158 217 4 55 3 58 -38 103 -23 25 -50 46 -59
46 -9 0 -62 -30 -116 -66 -121 -81 -293 -166 -395 -194 -158 -44 -387 -33
-480 22 -71 43 -171 130 -225 197 -104 129 -124 207 -125 481 l0 156 -46 44
c-25 25 -57 64 -72 87 -15 24 -30 43 -34 43 -4 0 -21 -24 -38 -52z"/>
<path d="M1105 9445 c-55 -14 -108 -25 -118 -25 -21 0 -122 -61 -232 -138
-106 -76 -285 -257 -364 -367 -73 -105 -169 -295 -205 -410 -95 -299 -96 -575
-6 -975 41 -179 62 -250 74 -250 22 0 66 37 115 97 l50 61 -19 119 c-82 511
-72 778 41 1012 125 263 393 478 792 636 l98 39 -3 110 -3 111 -60 2 c-36 1
-101 -8 -160 -22z"/>
<path d="M11477 9463 c-4 -3 -7 -54 -7 -113 l0 -107 98 -38 c53 -21 147 -64
209 -95 287 -146 471 -316 579 -535 116 -235 127 -501 44 -1018 l-19 -119 50
-61 c98 -119 118 -124 143 -34 56 200 100 444 111 612 8 107 -6 281 -31 399
-51 246 -177 494 -353 695 -104 119 -311 284 -436 348 -78 40 -366 89 -388 66z"/>
<path d="M946 8153 c-55 -74 -140 -255 -181 -383 -58 -184 -103 -441 -130
-739 -6 -68 -5 -73 11 -67 10 4 63 18 118 31 145 34 159 40 152 68 -3 13 -10
66 -17 120 -13 111 -1 246 32 375 22 84 93 242 110 242 20 0 65 -29 99 -65 19
-20 47 -43 62 -51 25 -13 29 -11 85 30 32 24 68 54 81 68 l23 25 -21 53 c-44
111 -128 199 -270 284 -112 67 -112 67 -154 9z"/>
<path d="M11707 8148 c-151 -91 -233 -175 -277 -288 l-21 -53 23 -25 c13 -14
49 -44 81 -68 56 -41 60 -43 85 -30 15 8 43 31 62 51 34 36 79 65 99 65 17 0
88 -158 110 -242 33 -129 45 -264 32 -375 -7 -54 -14 -107 -17 -120 -7 -28 7
-34 152 -68 55 -13 108 -27 118 -31 16 -6 17 -1 11 67 -27 298 -72 555 -130
739 -57 181 -189 430 -228 430 -7 0 -52 -24 -100 -52z"/>
<path d="M1498 8056 c-15 -256 -149 -411 -377 -432 l-68 -7 -18 -154 c-10 -84
-16 -156 -13 -158 7 -8 116 14 188 37 305 97 487 339 528 701 7 67 6 79 -7 86
-9 5 -64 11 -122 13 l-106 5 -5 -91z"/>
<path d="M11170 8141 c-52 -3 -100 -9 -106 -13 -15 -10 1 -140 32 -256 70
-268 238 -449 494 -530 72 -23 181 -45 188 -37 3 2 -3 74 -14 159 l-18 154
-68 6 c-227 21 -362 176 -376 434 -4 77 -7 92 -21 90 -9 -1 -59 -4 -111 -7z"/>
<path d="M1474 7410 c-21 -17 -58 -46 -81 -64 -27 -22 -59 -37 -86 -41 -42 -6
-44 -9 -77 -78 -45 -93 -140 -190 -230 -234 -107 -52 -177 -65 -321 -61 l-127
3 -47 -70 c-63 -93 -79 -130 -62 -144 20 -16 181 -41 266 -41 320 2 586 171
735 467 55 111 104 293 78 293 -5 0 -27 -14 -48 -30z"/>
<path d="M11270 7416 c0 -42 49 -194 86 -269 175 -350 512 -519 900 -452 48 9
94 21 101 26 16 14 -3 64 -45 117 -16 21 -36 51 -45 68 l-16 31 -128 -5 c-146
-5 -214 8 -322 61 -91 44 -186 141 -231 234 -33 69 -35 72 -77 78 -27 4 -59
19 -86 41 -82 66 -120 94 -129 94 -4 0 -8 -11 -8 -24z"/>
<path d="M524 7374 c-197 -118 -333 -355 -379 -664 -20 -128 -20 -492 0 -620
21 -138 59 -260 118 -374 42 -83 67 -117 137 -187 96 -97 193 -156 211 -129 6
9 9 58 6 120 -5 134 -20 168 -125 285 -108 119 -134 168 -140 261 -4 60 0 89
22 159 25 79 29 86 49 80 24 -8 74 -40 124 -80 30 -25 37 -26 166 -28 92 -1
140 2 148 10 8 8 1 27 -31 75 -24 34 -54 75 -68 90 l-24 27 34 43 c72 89 101
139 89 151 -8 8 -56 11 -148 10 -129 -2 -136 -3 -166 -28 -50 -40 -100 -72
-124 -80 -20 -6 -24 1 -49 80 -22 70 -26 99 -22 159 6 93 32 142 140 261 101
113 120 152 126 271 5 101 -1 144 -21 144 -7 0 -40 -16 -73 -36z"/>
<path d="M12184 7384 c-13 -49 2 -207 23 -254 11 -25 57 -85 101 -135 108
-119 134 -168 140 -261 4 -60 0 -89 -22 -159 -25 -79 -29 -86 -49 -80 -24 8
-74 40 -124 80 -30 25 -37 26 -166 28 -92 1 -140 -2 -148 -10 -8 -8 -1 -27 31
-75 24 -34 54 -75 68 -90 l26 -28 -26 -27 c-14 -16 -44 -57 -68 -91 -32 -48
-39 -67 -31 -75 8 -8 56 -11 148 -10 129 2 136 3 166 28 50 40 100 72 124 80
20 6 24 -1 49 -80 22 -70 26 -99 22 -159 -6 -93 -32 -142 -140 -261 -105 -117
-120 -151 -125 -285 -3 -62 0 -111 6 -120 18 -27 115 32 211 129 70 70 95 104
137 187 101 196 133 361 133 684 0 137 -5 250 -15 310 -34 228 -118 418 -240
548 -66 70 -180 152 -212 152 -7 0 -16 -12 -19 -26z"/>
<path d="M536 6104 c-101 -18 -110 -25 -91 -71 8 -19 28 -51 43 -71 16 -21 36
-51 45 -68 l16 -31 128 5 c146 5 214 -8 323 -61 90 -44 185 -141 230 -234 33
-69 36 -72 75 -78 43 -6 64 -19 155 -92 28 -24 56 -43 61 -43 15 0 10 44 -16
134 -129 445 -520 691 -969 610z"/>
<path d="M11930 6105 c-304 -61 -542 -288 -635 -609 -26 -92 -31 -136 -16
-136 5 0 33 19 61 43 91 73 112 86 155 92 39 6 42 9 75 78 45 93 140 190 231
234 108 53 176 66 322 61 l128 -5 16 31 c9 17 29 47 45 68 42 53 61 103 45
117 -22 17 -184 41 -276 40 -47 0 -115 -7 -151 -14z"/>
<path d="M635 5768 c47 -513 140 -862 290 -1088 26 -38 51 -72 56 -76 13 -8
115 46 195 102 83 59 140 125 182 212 l35 73 -24 26 c-13 14 -50 45 -82 69
-56 41 -60 43 -85 30 -15 -8 -43 -31 -62 -51 -34 -36 -79 -65 -99 -65 -17 0
-88 158 -110 242 -33 129 -45 264 -32 375 7 54 14 107 17 120 7 27 -3 32 -149
68 -56 14 -110 28 -120 31 -17 5 -18 0 -12 -68z"/>
<path d="M12026 5804 c-72 -19 -134 -38 -138 -42 -5 -5 -4 -30 1 -58 28 -150
22 -295 -20 -459 -22 -86 -93 -245 -110 -245 -20 0 -65 29 -99 65 -19 20 -47
43 -62 51 -25 13 -29 11 -85 -30 -32 -24 -69 -55 -82 -69 l-24 -26 35 -73 c42
-87 99 -153 182 -212 80 -56 182 -110 195 -102 5 4 30 38 56 76 129 193 216
480 264 860 27 216 34 300 24 299 -4 0 -66 -16 -137 -35z"/>
<path d="M226 5458 c-90 -323 -128 -617 -107 -827 22 -214 60 -351 150 -536
99 -203 240 -378 419 -523 106 -85 272 -192 298 -192 8 0 65 -11 126 -25 64
-15 132 -25 162 -23 l51 3 3 111 3 111 -48 18 c-358 136 -638 330 -776 537
-175 264 -201 546 -107 1131 l19 119 -50 61 c-49 60 -93 97 -115 97 -6 0 -19
-28 -28 -62z"/>
<path d="M12504 5502 c-12 -9 -45 -45 -73 -79 l-50 -61 19 -119 c65 -402 71
-649 20 -848 -86 -341 -369 -604 -868 -806 l-83 -33 3 -111 3 -110 49 -3 c55
-4 285 42 331 65 70 36 227 147 311 221 247 216 423 517 489 829 51 246 41
488 -35 823 -59 259 -66 273 -116 232z"/>
<path d="M1020 5483 c0 -10 8 -82 17 -160 l17 -143 31 0 c57 0 149 -22 198
-47 131 -66 216 -230 217 -414 l0 -66 108 5 c59 2 114 8 123 13 35 18 -21 289
-88 425 -104 210 -285 341 -539 390 -42 8 -78 14 -80 14 -2 0 -4 -8 -4 -17z"/>
<path d="M11669 5480 c-352 -74 -561 -325 -607 -728 -7 -62 -6 -74 7 -81 9 -5
64 -11 122 -13 l106 -5 6 96 c13 231 130 385 322 420 32 6 73 11 89 11 l31 0
18 143 c20 169 21 177 5 176 -7 0 -52 -9 -99 -19z"/>
<path d="M1342 4619 c-179 -32 -475 -183 -598 -306 -68 -68 -88 -112 -85 -186
1 -32 74 -117 100 -117 9 0 62 30 116 66 123 82 293 165 400 196 114 32 310
33 410 1 127 -40 307 -208 370 -345 33 -71 44 -166 45 -358 l0 -156 46 -44
c25 -25 57 -64 72 -87 15 -24 31 -42 36 -40 20 7 77 126 97 203 30 112 38 381
15 474 -44 173 -194 404 -330 507 -85 64 -245 139 -363 169 -110 28 -251 38
-331 23z"/>
<path d="M11207 4614 c-157 -28 -327 -100 -443 -188 -60 -45 -139 -133 -203
-229 -51 -76 -118 -226 -132 -295 -19 -98 -7 -357 20 -458 21 -77 78 -195 97
-201 5 -2 21 16 36 40 15 23 47 62 72 87 l46 44 0 156 c1 275 21 352 126 482
54 67 177 173 233 203 96 49 322 56 471 15 102 -28 274 -113 395 -194 54 -36
107 -66 116 -66 9 0 35 20 58 45 36 39 41 51 41 91 0 25 -8 62 -17 81 -64 135
-413 342 -653 387 -98 19 -159 19 -263 0z"/>
<path d="M1433 4234 c-12 -3 -24 -13 -27 -22 -3 -9 -10 -98 -17 -197 -24 -371
13 -862 91 -1202 l22 -93 56 0 c80 0 152 22 257 75 141 72 133 60 101 158 -48
148 -69 167 -143 127 -74 -40 -79 -34 -119 143 -57 248 -46 612 25 893 l18 72
-75 21 c-78 23 -152 33 -189 25z"/>
<path d="M11275 4236 c-5 -2 -47 -14 -91 -26 l-81 -22 18 -72 c70 -277 81
-648 25 -893 -40 -177 -45 -183 -119 -143 -74 40 -95 21 -143 -127 -32 -98
-40 -86 101 -158 105 -53 177 -75 257 -75 l56 0 22 93 c29 129 57 305 77 487
26 248 20 896 -10 926 -6 6 -99 15 -112 10z"/>
<path d="M301 3697 c-15 -39 -49 -205 -67 -332 -22 -149 -25 -539 -6 -695 34
-271 94 -487 192 -687 57 -116 62 -123 89 -123 23 0 38 10 65 43 44 54 64 100
72 169 8 67 -4 128 -67 339 -68 227 -92 392 -92 629 -1 195 7 256 50 402 l26
86 -47 55 c-63 72 -117 111 -183 131 -18 6 -25 2 -32 -17z"/>
<path d="M12421 3695 c-67 -31 -184 -150 -178 -180 3 -11 16 -63 31 -115 69
-250 53 -626 -39 -940 -89 -300 -97 -353 -71 -442 22 -78 86 -158 126 -158 28
0 33 7 90 123 95 196 151 390 185 642 23 171 30 425 16 585 -19 226 -71 499
-96 507 -5 1 -34 -8 -64 -22z"/>
<path d="M1724 3489 c-16 -18 -19 -40 -22 -138 l-3 -116 57 -24 c31 -14 80
-46 109 -73 104 -95 156 -211 158 -355 l2 -83 35 6 c19 3 77 14 128 26 l93 20
-7 36 c-70 418 -210 631 -463 708 -60 18 -65 18 -87 -7z"/>
<path d="M10985 3495 c-223 -70 -362 -253 -430 -565 -13 -58 -26 -121 -29
-142 l-7 -36 93 -20 c51 -12 109 -23 128 -26 l35 -6 2 83 c2 144 54 260 158
355 29 27 78 59 109 73 l57 24 -3 116 c-3 98 -6 120 -22 138 -21 24 -34 24
-91 6z"/>
<path d="M810 2685 c-8 -2 -48 -9 -89 -15 l-74 -12 6 -82 c5 -72 37 -197 57
-219 4 -5 42 -1 83 7 106 22 211 20 265 -4 62 -28 107 -66 142 -117 116 -176
113 -432 -7 -612 -24 -35 -43 -69 -43 -75 0 -17 41 -79 87 -130 l42 -47 31 23
c81 59 172 224 217 393 24 90 27 117 27 280 1 144 -3 193 -18 245 -30 110 -74
190 -140 256 -56 56 -68 63 -132 77 -128 29 -377 47 -454 32z"/>
<path d="M11686 2680 c-38 -5 -103 -16 -144 -25 -71 -16 -80 -21 -137 -79 -67
-66 -111 -146 -141 -256 -15 -52 -19 -101 -18 -245 0 -163 3 -190 27 -280 45
-169 136 -334 217 -393 l31 -23 42 47 c46 51 87 113 87 130 0 6 -19 40 -43 75
-165 247 -100 619 126 725 63 29 159 32 274 8 41 -8 79 -12 83 -7 20 21 52
147 57 219 l6 81 -59 12 c-74 16 -317 22 -408 11z"/>
<path d="M2020 2635 c-163 -27 -342 -97 -418 -162 l-33 -28 41 -80 c22 -44 43
-101 46 -128 4 -26 10 -46 15 -45 4 2 81 40 171 86 90 45 192 90 228 99 69 18
301 25 317 10 16 -17 15 -184 -2 -268 -21 -103 -49 -174 -130 -323 -36 -66
-65 -123 -65 -127 0 -3 22 -9 48 -13 26 -3 83 -24 127 -46 l80 -41 28 33 c68
80 134 251 162 423 28 172 10 544 -28 582 -37 38 -422 56 -587 28z"/>
<path d="M10290 2634 c-47 -8 -90 -20 -97 -27 -38 -38 -56 -410 -28 -582 28
-172 94 -343 162 -423 l28 -33 80 41 c44 22 101 43 127 46 26 4 48 10 48 13 0
4 -29 61 -65 127 -81 149 -109 220 -130 323 -17 84 -18 251 -2 268 16 15 248
8 317 -10 36 -9 138 -54 228 -99 90 -46 167 -84 171 -86 5 -1 11 19 15 45 3
27 24 84 46 128 l41 80 -33 28 c-80 68 -251 134 -423 162 -113 19 -370 18
-485 -1z"/>
<path d="M3533 2370 c-78 -11 -182 -46 -240 -80 -29 -17 -53 -34 -53 -38 0 -4
19 -19 43 -34 24 -15 63 -48 88 -73 l44 -45 155 0 c272 -1 351 -21 477 -121
75 -60 174 -174 203 -235 55 -112 63 -319 20 -474 -29 -102 -113 -274 -194
-395 -36 -54 -66 -107 -66 -116 0 -9 21 -36 46 -59 45 -41 48 -42 103 -38 45
3 67 11 105 38 137 98 323 445 357 664 30 190 -58 492 -194 672 -102 134 -333
286 -502 329 -63 16 -295 19 -392 5z"/>
<path d="M8870 2365 c-169 -47 -397 -198 -497 -329 -136 -180 -224 -482 -194
-672 34 -219 220 -566 357 -664 38 -27 60 -35 105 -38 55 -4 58 -3 103 38 25
23 46 50 46 59 0 9 -30 62 -66 116 -81 121 -166 293 -194 395 -45 162 -33 385
26 487 38 66 127 166 198 222 125 100 205 120 476 121 l155 0 44 45 c25 25 64
58 88 73 24 15 42 31 40 36 -6 19 -123 76 -201 97 -107 29 -399 38 -486 14z"/>
<path d="M2055 2338 c-9 -26 -57 -330 -52 -334 2 -2 80 8 173 23 l169 28 3 31
c3 32 -23 222 -31 231 -7 7 -184 33 -225 33 -18 0 -35 -6 -37 -12z"/>
<path d="M10572 2335 c-46 -7 -85 -15 -88 -18 -9 -9 -35 -199 -32 -231 l3 -31
169 -28 c93 -15 171 -25 173 -23 3 2 -8 80 -24 173 l-28 168 -45 2 c-25 1 -82
-4 -128 -12z"/>
<path d="M156 2284 c-26 -25 -35 -48 -56 -136 -20 -87 -59 -412 -82 -678 -18
-209 -18 -1434 0 -1452 18 -18 1243 -18 1452 0 398 34 720 80 780 112 28 15
50 40 50 56 0 29 -46 62 -105 74 -32 7 -86 28 -121 46 -98 55 -114 57 -244 35
-255 -44 -303 -46 -930 -46 l-605 0 -3 515 c-3 563 5 760 43 989 14 79 22 156
18 170 -3 14 -23 59 -44 100 -21 40 -44 100 -50 132 -16 82 -65 122 -103 83z"/>
<path d="M967 2233 c-285 -190 -477 -463 -548 -778 -21 -93 -18 -351 5 -450
23 -101 56 -203 108 -332 l40 -101 101 -40 c118 -47 233 -84 332 -109 89 -22
361 -24 450 -4 238 54 426 159 605 340 90 90 230 273 230 300 0 8 -174 133
-217 155 l-32 16 -47 -72 c-151 -235 -354 -399 -564 -455 -89 -23 -252 -23
-347 1 -45 11 -73 23 -73 32 0 7 23 32 51 56 29 24 68 58 88 76 l36 32 -65 59
c-80 73 -88 81 -161 161 l-59 65 -32 -36 c-18 -20 -52 -59 -76 -88 -24 -28
-49 -51 -57 -51 -23 0 -50 141 -49 260 1 167 47 293 164 449 70 92 175 187
296 268 l83 55 -18 37 c-11 20 -40 65 -66 100 -26 35 -55 76 -64 92 l-17 27
-97 -65z"/>
<path d="M11730 2292 c0 -5 -27 -47 -61 -93 -33 -46 -69 -100 -79 -120 l-19
-37 83 -55 c233 -155 388 -350 443 -557 23 -88 23 -243 0 -342 -12 -51 -23
-78 -32 -78 -8 0 -33 23 -57 51 -24 29 -58 68 -76 88 l-32 36 -59 -65 c-73
-80 -81 -88 -161 -161 l-65 -59 36 -32 c20 -18 59 -52 88 -76 28 -24 51 -49
51 -56 0 -9 -28 -21 -72 -32 -95 -24 -259 -24 -348 -1 -208 55 -408 214 -557
444 l-54 83 -32 -16 c-43 -22 -217 -147 -217 -155 0 -27 140 -210 230 -300
179 -181 367 -286 605 -340 89 -20 361 -18 450 4 99 25 214 62 332 109 l101
40 40 101 c103 258 127 366 127 567 0 165 -9 221 -55 357 -89 263 -283 497
-552 667 -32 20 -58 33 -58 28z"/>
<path d="M12578 2280 c-18 -13 -28 -36 -37 -76 -6 -32 -28 -92 -50 -133 -21
-42 -41 -88 -44 -102 -4 -14 4 -91 18 -170 38 -229 46 -426 43 -989 l-3 -515
-605 0 c-626 0 -677 3 -929 46 -129 22 -151 19 -241 -32 -30 -18 -86 -39 -124
-48 -106 -25 -137 -83 -67 -124 65 -38 356 -82 791 -119 209 -18 1434 -18
1452 0 18 18 18 1243 0 1452 -34 398 -80 720 -112 780 -14 27 -39 50 -54 50
-7 0 -24 -9 -38 -20z"/>
<path d="M2732 2188 c-12 -51 -23 -109 -26 -128 l-6 -35 83 -2 c144 -2 260
-54 355 -158 27 -29 59 -78 73 -109 l24 -57 117 3 c106 3 120 5 140 25 l22 22
-18 58 c-43 135 -110 228 -220 301 -113 76 -272 130 -488 166 l-36 7 -20 -93z"/>
<path d="M9906 2254 c-136 -28 -268 -75 -352 -125 -119 -71 -219 -201 -254
-332 -12 -45 -12 -50 9 -70 19 -20 34 -22 139 -25 l117 -3 24 57 c14 31 46 80
73 109 95 104 211 156 355 158 l83 2 -6 35 c-16 104 -47 220 -57 219 -7 0 -65
-11 -131 -25z"/>
<path d="M2812 1848 c-68 -123 -83 -167 -89 -264 l-6 -82 94 -21 c122 -29 369
-66 534 -82 234 -22 834 -15 875 11 22 14 18 115 -9 206 l-23 81 -72 -18
c-286 -72 -642 -82 -895 -25 -142 32 -161 40 -161 68 0 13 9 37 20 53 41 62
25 85 -90 128 -128 48 -119 51 -178 -55z"/>
<path d="M9832 1911 c-136 -47 -155 -71 -112 -136 11 -16 20 -40 20 -53 0 -28
-19 -36 -161 -68 -253 -57 -609 -47 -895 25 l-72 18 -23 -81 c-27 -91 -31
-192 -9 -206 41 -26 641 -33 875 -11 164 15 412 53 533 81 l92 22 0 57 c0 31
-8 86 -18 123 -20 72 -118 258 -136 258 -6 0 -48 -13 -94 -29z"/>
<path d="M4671 1731 c-5 -9 -11 -64 -13 -122 l-5 -106 96 -6 c252 -14 406
-149 427 -375 l6 -68 147 -17 c80 -10 152 -17 159 -17 16 0 8 55 -25 170 -92
320 -330 505 -706 548 -67 7 -79 6 -86 -7z"/>
<path d="M8025 1735 c-364 -49 -586 -220 -683 -525 -23 -70 -45 -181 -38 -188
3 -2 75 4 160 14 l156 18 0 31 c0 17 5 58 11 90 35 193 188 309 422 322 l99 6
-6 30 c-3 16 -6 64 -6 106 0 108 -3 111 -115 96z"/>
<path d="M925 1684 c-16 -8 -38 -23 -49 -32 -25 -23 -126 -171 -126 -185 0
-21 94 -153 201 -284 111 -135 286 -290 436 -387 72 -46 97 -55 108 -36 3 5
37 30 74 54 68 43 113 91 125 132 9 30 -55 85 -244 214 -82 56 -162 116 -179
135 -16 19 -70 94 -120 169 -85 125 -174 236 -189 236 -4 0 -20 -7 -37 -16z"/>
<path d="M11787 1650 c-25 -27 -90 -116 -145 -198 -55 -81 -113 -159 -129
-174 -15 -14 -95 -72 -178 -128 -177 -120 -238 -175 -229 -205 12 -40 58 -88
125 -131 37 -24 71 -49 74 -54 11 -19 36 -10 108 36 150 97 325 252 436 387
107 131 201 263 201 284 0 20 -110 172 -143 197 -58 43 -70 42 -120 -14z"/>
<path d="M1882 1546 c-210 -40 -414 -141 -484 -239 l-21 -29 39 -35 c49 -43
124 -93 140 -93 6 0 40 19 75 43 247 165 619 100 725 -126 29 -63 32 -159 8
-274 -8 -41 -12 -79 -7 -83 21 -20 147 -52 219 -57 l81 -6 12 59 c30 145 23
386 -15 557 -15 66 -22 76 -78 133 -65 65 -146 110 -251 139 -83 23 -345 29
-443 11z"/>
<path d="M10545 1550 c-142 -26 -263 -86 -341 -172 -34 -36 -45 -59 -58 -116
-38 -170 -45 -411 -15 -556 l12 -59 81 6 c72 5 198 37 219 57 5 4 1 42 -7 83
-24 115 -21 211 8 274 106 226 478 291 725 126 35 -24 69 -43 75 -43 16 0 91
50 140 93 l39 35 -21 29 c-57 80 -230 175 -397 219 -82 21 -128 27 -255 30
-85 1 -177 -1 -205 -6z"/>
<path d="M5360 1522 c0 -9 28 -47 94 -129 22 -27 37 -59 41 -86 6 -42 9 -44
78 -77 93 -45 190 -140 234 -231 53 -108 66 -176 61 -322 l-5 -128 31 -16 c17
-9 47 -29 68 -45 53 -42 103 -61 117 -45 16 20 41 181 41 266 -2 320 -171 586
-467 735 -111 55 -293 104 -293 78z"/>
<path d="M7302 1504 c-379 -112 -622 -422 -622 -794 0 -86 25 -247 41 -267 14
-16 64 3 117 45 21 16 51 36 68 45 l31 16 -5 128 c-5 146 8 214 61 322 44 91
141 186 234 231 69 33 72 35 78 77 4 27 19 59 41 86 66 82 94 120 94 129 0 14
-52 8 -138 -18z"/>
<path d="M4936 1369 c-68 -28 -126 -70 -183 -133 -48 -54 -141 -200 -150 -236
-10 -40 219 -169 408 -229 117 -37 280 -74 414 -95 114 -17 405 -49 410 -44 6
5 -64 271 -73 280 -4 4 -35 3 -68 -4 -77 -15 -271 -15 -354 1 -133 25 -340
106 -340 133 0 19 30 65 65 98 20 19 43 47 51 61 12 25 11 30 -18 70 -33 48
-99 119 -108 118 -3 0 -27 -9 -54 -20z"/>
<path d="M7768 1353 c-19 -21 -49 -58 -66 -82 -29 -40 -30 -45 -18 -70 8 -14
31 -42 51 -61 35 -33 65 -79 65 -98 0 -27 -207 -108 -340 -133 -83 -16 -277
-16 -354 -1 -33 7 -64 8 -68 4 -9 -9 -79 -274 -74 -280 5 -5 292 26 411 44
134 21 297 58 414 95 189 60 418 189 408 229 -3 10 -27 56 -53 101 -62 106
-170 217 -244 251 -91 42 -92 42 -132 1z"/>
<path d="M3337 1323 c-23 -22 26 -310 66 -388 36 -71 134 -208 216 -301 214
-246 515 -423 828 -489 279 -58 556 -37 970 71 50 13 94 24 97 24 12 0 5 36
-12 56 -9 12 -45 45 -79 73 l-61 50 -89 -14 c-541 -86 -802 -79 -1031 30 -269
127 -472 375 -638 778 l-49 117 -106 0 c-58 0 -109 -3 -112 -7z"/>
<path d="M9196 1213 c-195 -473 -455 -747 -791 -833 -203 -52 -437 -45 -878
25 l-89 14 -61 -50 c-34 -28 -70 -61 -79 -73 -17 -20 -24 -56 -12 -56 3 0 47
-11 97 -24 414 -108 691 -129 970 -71 313 66 614 243 828 489 82 93 180 230
216 301 28 54 75 280 71 341 l-3 49 -110 3 -110 3 -49 -118z"/>
<path d="M6203 858 c-4 -7 -7 -73 -6 -146 2 -128 3 -135 28 -165 40 -50 72
-100 80 -124 6 -20 -1 -24 -80 -49 -70 -22 -99 -26 -159 -22 -93 6 -142 32
-261 140 -117 105 -151 120 -285 125 -62 3 -111 0 -120 -6 -27 -18 32 -115
129 -211 70 -70 104 -95 187 -137 196 -101 361 -133 684 -133 323 0 488 32
684 133 83 42 117 67 187 137 97 96 156 193 129 211 -9 6 -58 9 -120 6 -134
-5 -166 -19 -292 -130 -122 -108 -162 -129 -255 -135 -59 -4 -88 0 -158 22
-79 25 -86 29 -80 49 8 24 40 74 80 124 25 30 26 37 28 166 1 92 -2 140 -10
148 -8 8 -27 1 -75 -31 -34 -24 -75 -54 -90 -68 l-28 -26 -27 26 c-28 25 -148
108 -157 108 -3 0 -8 -6 -13 -12z"/>
<path d="M2012 636 c-84 -27 -152 -85 -152 -128 0 -26 9 -32 123 -87 204 -100
416 -159 687 -193 155 -19 545 -16 695 6 142 20 335 62 348 75 6 6 -1 31 -17
66 -32 70 -150 189 -181 182 -11 -3 -63 -16 -115 -31 -252 -70 -621 -53 -945
41 -223 65 -260 74 -330 79 -44 2 -86 -1 -113 -10z"/>
<path d="M10602 640 c-24 -5 -102 -27 -175 -49 -165 -50 -240 -68 -370 -86
-257 -35 -477 -28 -657 21 -52 15 -104 28 -115 31 -31 7 -149 -112 -181 -182
-16 -35 -23 -60 -17 -66 13 -13 206 -55 348 -75 150 -22 540 -25 695 -6 268
33 485 94 688 193 114 55 122 61 122 88 0 35 -51 84 -119 114 -52 23 -154 31
-219 17z"/>
</g>
</svg>
